<svg xmlns="http://www.w3.org/2000/svg" width="75" height="75" fill="none" viewBox="0 0 75 75">
  <path fill="#29382B" d="m48.85 25.09-.005.622.107.658.021.663v.663l.018.663-.086.632.021.635-.06.632-.066.63-.104.626-.123.622-.066.66-.698-.07-.69.037-.689-.008-.69-.02-.691.061-.691-.067-.69.067-.694-.057-.704.065.118-.66.102-.627.073-.63.058-.63.036-.631.063-.632-.076-.635.021-.663-.042-.663.029-.665-.068-.66-.024-.635-.604-.073h-.615l-.615.054h-.612l.021.65.024.664.086.66-.047.666.029.663-.006.634-.044.632-.073.63-.008.637-.066.632-.164.616-.097.614-.646-.008-.652.047-.651-.023-.652-.042-.651.086-.654-.008-.657-.023-.15-.63-.023-.637-.144-.622-.078-.629.023-.637-.065-.632v-.635l-.02-.663.07-.66.018-.663-.013-.666.044-.653-.612-.036-.615.02-.614-.007-.613.023-.008.653-.065.66.021.664-.031.663-.055.663.007.634.087.63.034.632.005.634.07.63.158.616.07.637-.693.031-.69-.01-.689.01-.69-.026-.691-.015-.691-.005-.69-.029-.694.07-.685-.057-.079-.606-.154-.616-.092-.627-.016-.635-.075-.63.005-.634-.07-.632.07-.663-.05-.663.086-.66-.039-.666.068-.647-.61-.05h-.614l-.615.04-.61.017-.073.64-.01.663-.063.663.057.666-.052.663.016.692.044.691.073.69.034.69.055.692.17.676.113.684.152.676.18.668.183.669.178.67.183.669.212.621.173.637.262.607.274.598.225.619.28.596.304.585.319.578.283.593.29.59.33.573.319.6.403.552.337.59.416.542.346.588.379.565.45.512.343.596.434.526.445.515.49.472.412.523.46.438.45-.448.464-.48.403-.502.429-.482.364-.533.397-.505.443-.474.313-.565.409-.502.324-.56.366-.534.333.555.39.515.326.557.409.5.366.528.369.531.403.503.405.502.474.44.445.495.442.474.434-.481.468-.474.44-.518.442-.516.403-.546.43-.529.368-.57.406-.546.392-.554.406-.547.374-.57.285-.621.343-.588.368-.55.338-.567.272-.6.301-.586.3-.588.27-.6.223-.622.264-.604.246-.611.228-.617.18-.632.225-.658.178-.67.22-.66.073-.695.225-.66.118-.684.06-.692.141-.681.068-.689.01-.694.058-.692-.023-.694-.006-.663.016-.663-.039-.663-.029-.663-.055-.632-.604-.01-.615.026-.615-.04-.602.034.016.01ZM33.14 46.538l-.4-.614-.476-.516-.406-.57-.387-.58-.395-.577-.309-.63-.405-.572-.343-.609-.322-.577-.293-.593-.283-.601-.358-.565-.212-.632-.298-.59-.246-.614-.223-.625-.287-.6-.15-.65-.245-.648.693.054.685-.067.683.039.683.01h1.371l.685-.005.686.036.698-.083.194.702.233.656.167.66.267.63.249.634.188.658.272.627.333.598.293.617.28.621.306.596-.278.583-.397.526-.335.564-.361.547-.387.53-.403.519-.346.56-.421.546v.005Zm2.68-11.379.682.073.667-.075h.667l.667.013.68-.008-.245.655-.165.64-.238.616-.24.614-.273.601-.285.596-.236.648-.238-.645-.298-.588-.246-.612-.22-.621-.285-.599-.146-.647-.252-.66h.003Zm9.203 6.735-.418.564-.301.635-.377.588-.395.578-.387.58-.471.523-.377.588-.437.541-.4-.518-.377-.539-.366-.544-.437-.497-.304-.585-.387-.531-.34-.562-.314-.557.257-.616.368-.58.236-.646.335-.598.21-.653.292-.616.257-.632.23-.643.217-.644.202-.666.198-.63.673-.08.685.026.683-.028.683.051.685-.036h.686l.685.073h.686l.69-.055-.193.645-.24.62-.236.618-.18.64-.31.59-.243.617-.275.604-.303.587-.324.578-.262.611-.304.591v.008Z"/>
</svg>
