<?xml version="1.0" encoding="utf-8"?>
<svg xmlns="http://www.w3.org/2000/svg">
    <defs>
        <!-- Social Icons -->
        <symbol id="twitter-x" viewBox="0 0 24 24">
            <path d="M18.2048 2.25H21.5128L14.2858 10.51L22.7878 21.75H16.1308L10.9168 14.933L4.95084 21.75H1.64084L9.37084 12.915L1.21484 2.25H8.04084L12.7538 8.481L18.2048 2.25ZM17.0438 19.77H18.8768L7.04484 4.126H5.07784L17.0438 19.77Z" fill="currentColor"></path>
        </symbol>
        <symbol id="facebook" viewBox="0 0 24 24">
            <path d="M12.001 2C6.47813 2 2.00098 6.47715 2.00098 12C2.00098 16.9913 5.65783 21.1283 10.4385 21.8785V14.8906H7.89941V12H10.4385V9.79688C10.4385 7.29063 11.9314 5.90625 14.2156 5.90625C15.3097 5.90625 16.4541 6.10156 16.4541 6.10156V8.5625H15.1931C13.9509 8.5625 13.5635 9.33334 13.5635 10.1242V12H16.3369L15.8936 14.8906H13.5635V21.8785C18.3441 21.1283 22.001 16.9913 22.001 12C22.001 6.47715 17.5238 2 12.001 2Z" fill="currentColor"></path>
        </symbol>
        <symbol id="youtube" viewBox="0 0 24 24">
            <path d="M12.2439 4C12.778 4.00294 14.1143 4.01586 15.5341 4.07273L16.0375 4.09468C17.467 4.16236 18.8953 4.27798 19.6037 4.4755C20.5486 4.74095 21.2913 5.5155 21.5423 6.49732C21.942 8.05641 21.992 11.0994 21.9982 11.8358L21.9991 11.9884L21.9991 11.9991C21.9991 11.9991 21.9991 12.0028 21.9991 12.0099L21.9982 12.1625C21.992 12.8989 21.942 15.9419 21.5423 17.501C21.2878 18.4864 20.5451 19.261 19.6037 19.5228C18.8953 19.7203 17.467 19.8359 16.0375 19.9036L15.5341 19.9255C14.1143 19.9824 12.778 19.9953 12.2439 19.9983L12.0095 19.9991L11.9991 19.9991C11.9991 19.9991 11.9956 19.9991 11.9887 19.9991L11.7545 19.9983C10.6241 19.9921 5.89772 19.941 4.39451 19.5228C3.4496 19.2573 2.70692 18.4828 2.45587 17.501C2.0562 15.9419 2.00624 12.8989 2 12.1625V11.8358C2.00624 11.0994 2.0562 8.05641 2.45587 6.49732C2.7104 5.51186 3.45308 4.73732 4.39451 4.4755C5.89772 4.05723 10.6241 4.00622 11.7545 4H12.2439ZM9.99911 8.49914V15.4991L15.9991 11.9991L9.99911 8.49914Z" fill="currentColor"></path>
        </symbol>
        <symbol id="instagram" viewBox="0 0 24 24">
            <path d="M12.001 9C10.3436 9 9.00098 10.3431 9.00098 12C9.00098 13.6573 10.3441 15 12.001 15C13.6583 15 15.001 13.6569 15.001 12C15.001 10.3427 13.6579 9 12.001 9ZM12.001 7C14.7614 7 17.001 9.2371 17.001 12C17.001 14.7605 14.7639 17 12.001 17C9.24051 17 7.00098 14.7629 7.00098 12C7.00098 9.23953 9.23808 7 12.001 7ZM18.501 6.74915C18.501 7.43926 17.9402 7.99917 17.251 7.99917C16.5609 7.99917 16.001 7.4384 16.001 6.74915C16.001 6.0599 16.5617 5.5 17.251 5.5C17.9393 5.49913 18.501 6.0599 18.501 6.74915ZM12.001 4C9.5265 4 9.12318 4.00655 7.97227 4.0578C7.18815 4.09461 6.66253 4.20007 6.17416 4.38967C5.74016 4.55799 5.42709 4.75898 5.09352 5.09255C4.75867 5.4274 4.55804 5.73963 4.3904 6.17383C4.20036 6.66332 4.09493 7.18811 4.05878 7.97115C4.00703 9.0752 4.00098 9.46105 4.00098 12C4.00098 14.4745 4.00753 14.8778 4.05877 16.0286C4.0956 16.8124 4.2012 17.3388 4.39034 17.826C4.5591 18.2606 4.7605 18.5744 5.09246 18.9064C5.42863 19.2421 5.74179 19.4434 6.17187 19.6094C6.66619 19.8005 7.19148 19.9061 7.97212 19.9422C9.07618 19.9939 9.46203 20 12.001 20C14.4755 20 14.8788 19.9934 16.0296 19.9422C16.8117 19.9055 17.3385 19.7996 17.827 19.6106C18.2604 19.4423 18.5752 19.2402 18.9074 18.9085C19.2436 18.5718 19.4445 18.2594 19.6107 17.8283C19.8013 17.3358 19.9071 16.8098 19.9432 16.0289C19.9949 14.9248 20.001 14.5389 20.001 12C20.001 9.52552 19.9944 9.12221 19.9432 7.97137C19.9064 7.18906 19.8005 6.66149 19.6113 6.17318C19.4434 5.74038 19.2417 5.42635 18.9084 5.09255C18.573 4.75715 18.2616 4.55693 17.8271 4.38942C17.338 4.19954 16.8124 4.09396 16.0298 4.05781C14.9258 4.00605 14.5399 4 12.001 4ZM12.001 2C14.7176 2 15.0568 2.01 16.1235 2.06C17.1876 2.10917 17.9135 2.2775 18.551 2.525C19.2101 2.77917 19.7668 3.1225 20.3226 3.67833C20.8776 4.23417 21.221 4.7925 21.476 5.45C21.7226 6.08667 21.891 6.81333 21.941 7.8775C21.9885 8.94417 22.001 9.28333 22.001 12C22.001 14.7167 21.991 15.0558 21.941 16.1225C21.8918 17.1867 21.7226 17.9125 21.476 18.55C21.2218 19.2092 20.8776 19.7658 20.3226 20.3217C19.7668 20.8767 19.2076 21.22 18.551 21.475C17.9135 21.7217 17.1876 21.89 16.1235 21.94C15.0568 21.9875 14.7176 22 12.001 22C9.28431 22 8.94514 21.99 7.87848 21.94C6.81431 21.8908 6.08931 21.7217 5.45098 21.475C4.79264 21.2208 4.23514 20.8767 3.67931 20.3217C3.12348 19.7658 2.78098 19.2067 2.52598 18.55C2.27848 17.9125 2.11098 17.1867 2.06098 16.1225C2.01348 15.0558 2.00098 14.7167 2.00098 12C2.00098 9.28333 2.01098 8.94417 2.06098 7.8775C2.11014 6.8125 2.27848 6.0875 2.52598 5.45C2.78014 4.79167 3.12348 4.23417 3.67931 3.67833C4.23514 3.1225 4.79348 2.78 5.45098 2.525C6.08848 2.2775 6.81348 2.11 7.87848 2.06C8.94514 2.0125 9.28431 2 12.001 2Z" fill="currentColor"></path>
        </symbol>
        <symbol id="linkedin" viewBox="0 0 24 24">
            <path d="M18.3352 18.339H15.6697V14.1622C15.6697 13.1662 15.6495 11.8845 14.2807 11.8845C12.891 11.8845 12.6787 12.9683 12.6787 14.0887V18.339H10.0132V9.75H12.5737V10.9207H12.6082C12.966 10.2457 13.836 9.53325 15.1357 9.53325C17.8365 9.53325 18.336 11.3108 18.336 13.6245L18.3352 18.339ZM7.00275 8.57475C6.14475 8.57475 5.4555 7.88025 5.4555 7.026C5.4555 6.1725 6.1455 5.47875 7.00275 5.47875C7.85775 5.47875 8.55075 6.1725 8.55075 7.026C8.55075 7.88025 7.857 8.57475 7.00275 8.57475ZM8.33925 18.339H5.66625V9.75H8.33925V18.339ZM19.6687 3H4.32825C3.594 3 3 3.5805 3 4.29675V19.7033C3 20.4202 3.594 21 4.32825 21H19.6665C20.4 21 21 20.4202 21 19.7033V4.29675C21 3.5805 20.4 3 19.6665 3H19.6687Z" fill="currentColor"></path>
        </symbol>
        <!-- Other Icons -->
        <symbol id="chevron-left" viewBox="0 0 24 24">
            <path d="M16 21.6538L6.34616 12L16 2.34619L17.4192 3.76539L9.18459 12L17.4192 20.2346L16 21.6538Z" fill="currentColor"/>
        </symbol>
        <symbol id="chevron-right" viewBox="0 0 24 24">
            <path d="M8.01538 21.6538L6.59618 20.2346L14.8308 12L6.59618 3.76539L8.01538 2.34619L17.6692 12L8.01538 21.6538Z" fill="currentColor"/>
        </symbol>
        <symbol id="chevron-up" viewBox="0 0 24 24">
            <path d="M21.6538 15.9846L20.2346 17.4038L12 9.16918L3.76538 17.4038L2.34618 15.9846L12 6.33078L21.6538 15.9846Z" fill="currentColor"/>
        </symbol>
        <symbol id="chevron-down" viewBox="0 0 24 24">
            <path d="M2.34616 8.01539L3.76536 6.59619L12 14.8308L20.2346 6.59619L21.6538 8.01539L12 17.6692L2.34616 8.01539Z" fill="currentColor"/>
        </symbol>
        <symbol id="arrow-left" viewBox="0 0 24 24">
            <path d="M10.1539 6.34616L11.2077 7.43076L7.38845 11.25L19.5 11.25L19.5 12.75L7.38845 12.75L11.2077 16.5692L10.1539 17.6538L4.50005 12L10.1539 6.34616Z" fill="currentColor"/>
        </symbol>
        <symbol id="arrow-right" viewBox="0 0 24 24">
            <path d="M13.8461 17.6538L12.7923 16.5692L16.6116 12.75H4.5V11.25H16.6116L12.7923 7.43079L13.8461 6.34619L19.5 12L13.8461 17.6538Z" fill="currentColor"/>
        </symbol>
        <symbol id="add" viewBox="0 0 24 24">
            <path d="M11.25 12.75H5.50003V11.25H11.25V5.5H12.75V11.25H18.5V12.75H12.75V18.5H11.25V12.75Z" fill="currentColor"/>
        </symbol>
        <symbol id="play" viewBox="0 0 24 24">
            <path d="M8.50003 18.096V5.90381L18.0769 11.9999L8.50003 18.096Z" fill="currentColor"/>
        </symbol>
        <symbol id="link" viewBox="0 0 24 24">
            <path d="M10.8077 16.5384H7.03845C5.78282 16.5384 4.7125 16.096 3.8275 15.2111C2.9425 14.3262 2.5 13.256 2.5 12.0006C2.5 10.7451 2.9425 9.6747 3.8275 8.78945C4.7125 7.9042 5.78282 7.46158 7.03845 7.46158H10.8077V8.96153H7.03845C6.1987 8.96153 5.48235 9.258 4.8894 9.85095C4.29645 10.4439 3.99998 11.1603 3.99998 12C3.99998 12.8398 4.29645 13.5561 4.8894 14.1491C5.48235 14.742 6.1987 15.0385 7.03845 15.0385H10.8077V16.5384ZM8.25 12.75V11.25H15.75V12.75H8.25ZM13.1923 16.5384V15.0385H16.9615C17.8013 15.0385 18.5176 14.742 19.1106 14.1491C19.7035 13.5561 20 12.8398 20 12C20 11.1603 19.7035 10.4439 19.1106 9.85095C18.5176 9.258 17.8013 8.96153 16.9615 8.96153H13.1923V7.46158H16.9615C18.2171 7.46158 19.2875 7.90402 20.1725 8.7889C21.0575 9.67379 21.5 10.744 21.5 11.9995C21.5 13.2549 21.0575 14.3253 20.1725 15.2106C19.2875 16.0958 18.2171 16.5384 16.9615 16.5384H13.1923Z" fill="currentColor"/>
        </symbol>
        <symbol id="download" viewBox="0 0 24 24">
            <path d="M12 15.7885L7.7308 11.5193L8.78462 10.4347L11.25 12.9001V4.50003H12.7499V12.9001L15.2153 10.4347L16.2692 11.5193L12 15.7885ZM6.3077 19.5C5.80257 19.5 5.375 19.325 5.025 18.975C4.675 18.625 4.5 18.1974 4.5 17.6923V14.9808H5.99997V17.6923C5.99997 17.7692 6.03202 17.8397 6.09612 17.9039C6.16024 17.968 6.23077 18 6.3077 18H17.6922C17.7692 18 17.8397 17.968 17.9038 17.9039C17.9679 17.8397 18 17.7692 18 17.6923V14.9808H19.5V17.6923C19.5 18.1974 19.325 18.625 18.975 18.975C18.625 19.325 18.1974 19.5 17.6922 19.5H6.3077Z" fill="currentColor"/>
        </symbol>
        <symbol id="external-link" viewBox="0 0 24 24">
            <path d="M5.3077 20.5C4.80257 20.5 4.375 20.325 4.025 19.975C3.675 19.625 3.5 19.1974 3.5 18.6923V5.3077C3.5 4.80257 3.675 4.375 4.025 4.025C4.375 3.675 4.80257 3.5 5.3077 3.5H11.6153V4.99998H5.3077C5.23077 4.99998 5.16024 5.03203 5.09612 5.09613C5.03202 5.16024 4.99997 5.23077 4.99997 5.3077V18.6923C4.99997 18.7692 5.03202 18.8397 5.09612 18.9038C5.16024 18.9679 5.23077 19 5.3077 19H18.6922C18.7692 19 18.8397 18.9679 18.9038 18.9038C18.9679 18.8397 19 18.7692 19 18.6923V12.3846H20.5V18.6923C20.5 19.1974 20.325 19.625 19.975 19.975C19.625 20.325 19.1974 20.5 18.6922 20.5H5.3077ZM9.7192 15.3346L8.66538 14.2808L17.9461 4.99998H14V3.5H20.5V9.99998H19V6.0538L9.7192 15.3346Z" fill="currentColor"/>
        </symbol>
        <symbol id="close" viewBox="0 0 24 24">
            <path d="M6.40148 18.6538L5.34766 17.6L10.9477 12L5.34766 6.40002L6.40148 5.34619L12.0015 10.9462L17.6015 5.34619L18.6553 6.40002L13.0553 12L18.6553 17.6L17.6015 18.6538L12.0015 13.0538L6.40148 18.6538Z" fill="currentColor"/>
        </symbol>
        <symbol id="audio-on" viewBox="0 0 24 24">
            <path d="M14.0368 20.1095V18.5595C15.4792 18.1007 16.641 17.2673 17.5223 16.0595C18.4038 14.8518 18.8446 13.4903 18.8446 11.975C18.8446 10.4597 18.4038 9.09817 17.5223 7.8905C16.641 6.68267 15.4792 5.84933 14.0368 5.3905V3.8405C15.8983 4.33917 17.415 5.3385 18.5868 6.8385C19.7585 8.3385 20.3443 10.0507 20.3443 11.975C20.3443 13.8993 19.7585 15.6115 18.5868 17.1115C17.415 18.6115 15.8983 19.6108 14.0368 20.1095ZM3.65234 14.5V9.5H7.36384L11.6521 5.21175V18.7883L7.36384 14.5H3.65234ZM14.0368 15.6538V8.29625C14.7112 8.66292 15.2323 9.17925 15.6003 9.84525C15.9682 10.5113 16.1521 11.2295 16.1521 12C16.1521 12.7602 15.9665 13.4675 15.5953 14.122C15.2242 14.7765 14.7047 15.2871 14.0368 15.6538ZM10.1521 8.85L8.00209 11H5.15209V13H8.00209L10.1521 15.15V8.85Z" fill="currentColor"/>
        </symbol>
        <symbol id="audio-off" viewBox="0 0 24 24">
            <path d="M19.4728 22.1385L16.4576 19.123C16.1114 19.3448 15.7467 19.5372 15.3633 19.7C14.98 19.8628 14.5832 19.9993 14.1728 20.1095V18.5595C14.387 18.4827 14.5953 18.4042 14.7978 18.324C15.0005 18.2438 15.1922 18.1487 15.3728 18.0385L11.7883 14.4537V18.7882L7.49984 14.5H3.78834V9.49999H6.83459L1.99609 4.66149L3.04984 3.60774L20.5266 21.0845L19.4728 22.1385ZM18.9843 16.7327L17.9093 15.6577C18.2568 15.1154 18.5223 14.5337 18.7056 13.9125C18.8889 13.2913 18.9806 12.6455 18.9806 11.975C18.9806 10.4597 18.5399 9.09816 17.6586 7.89049C16.7771 6.68266 15.6152 5.84933 14.1728 5.39049V3.84049C16.0408 4.33916 17.5591 5.33849 18.7276 6.83849C19.8963 8.33849 20.4806 10.0507 20.4806 11.975C20.4806 12.852 20.3502 13.694 20.0893 14.501C19.8283 15.308 19.46 16.0519 18.9843 16.7327ZM15.9228 13.6712L14.1728 11.9212V8.29624C14.8472 8.66291 15.3683 9.17924 15.7363 9.84524C16.1043 10.5112 16.2883 11.2295 16.2883 12C16.2883 12.2948 16.2578 12.5823 16.1968 12.8625C16.136 13.1427 16.0447 13.4122 15.9228 13.6712ZM11.7883 9.53649L9.63059 7.36924L11.7883 5.21174V9.53649ZM10.2883 15.15V12.9537L8.33459 11H5.28834V13H8.13834L10.2883 15.15Z" fill="currentColor"/>
        </symbol>
        <symbol id="circle-arrow-left" viewBox="0 0 24 24">
            <path d="M12 15.6443L13.0443 14.6L11.1942 12.75H15.75V11.25H11.1942L13.0443 9.4L12 8.35575L8.35575 12L12 15.6443ZM12.0018 21.5C10.6878 21.5 9.45267 21.2507 8.2965 20.752C7.14033 20.2533 6.13467 19.5766 5.2795 18.7218C4.42433 17.8669 3.74725 16.8617 3.24825 15.706C2.74942 14.5503 2.5 13.3156 2.5 12.0018C2.5 10.6878 2.74933 9.45267 3.248 8.2965C3.74667 7.14033 4.42342 6.13467 5.27825 5.2795C6.13308 4.42433 7.13833 3.74725 8.294 3.24825C9.44967 2.74942 10.6844 2.5 11.9982 2.5C13.3123 2.5 14.5473 2.74933 15.7035 3.248C16.8597 3.74667 17.8653 4.42342 18.7205 5.27825C19.5757 6.13308 20.2528 7.13833 20.7518 8.294C21.2506 9.44967 21.5 10.6844 21.5 11.9982C21.5 13.3123 21.2507 14.5473 20.752 15.7035C20.2533 16.8597 19.5766 17.8653 18.7218 18.7205C17.8669 19.5757 16.8617 20.2528 15.706 20.7518C14.5503 21.2506 13.3156 21.5 12.0018 21.5Z" fill="currentColor"/>
        </symbol>
        <symbol id="circle-arrow-right" viewBox="0 0 24 24">
            <path d="M12 15.6443L15.6443 12L12 8.35575L10.9558 9.4L12.8057 11.25H8.25V12.75H12.8057L10.9558 14.6L12 15.6443ZM12.0018 21.5C10.6878 21.5 9.45267 21.2507 8.2965 20.752C7.14033 20.2533 6.13467 19.5766 5.2795 18.7218C4.42433 17.8669 3.74725 16.8617 3.24825 15.706C2.74942 14.5503 2.5 13.3156 2.5 12.0018C2.5 10.6878 2.74933 9.45267 3.248 8.2965C3.74667 7.14033 4.42342 6.13467 5.27825 5.2795C6.13308 4.42433 7.13833 3.74725 8.294 3.24825C9.44967 2.74942 10.6844 2.5 11.9982 2.5C13.3123 2.5 14.5473 2.74933 15.7035 3.248C16.8597 3.74667 17.8653 4.42342 18.7205 5.27825C19.5757 6.13308 20.2528 7.13833 20.7518 8.294C21.2506 9.44967 21.5 10.6844 21.5 11.9982C21.5 13.3123 21.2507 14.5473 20.752 15.7035C20.2533 16.8597 19.5766 17.8653 18.7218 18.7205C17.8669 19.5757 16.8617 20.2528 15.706 20.7518C14.5503 21.2506 13.3156 21.5 12.0018 21.5Z" fill="currentColor"/>
        </symbol>
    </defs>
</svg>
