<?xml version="1.0" encoding="utf-8"?>
<svg xmlns="http://www.w3.org/2000/svg">
    <defs>

        <!-- Social Icons -->
        <symbol id="twitter-x" viewBox="0 0 24 24">
            <path d="M18.2048 2.25H21.5128L14.2858 10.51L22.7878 21.75H16.1308L10.9168 14.933L4.95084 21.75H1.64084L9.37084 12.915L1.21484 2.25H8.04084L12.7538 8.481L18.2048 2.25ZM17.0438 19.77H18.8768L7.04484 4.126H5.07784L17.0438 19.77Z" fill="currentColor"></path>
        </symbol>
        <symbol id="facebook" viewBox="0 0 24 24">
            <path d="M12.001 2C6.47813 2 2.00098 6.47715 2.00098 12C2.00098 16.9913 5.65783 21.1283 10.4385 21.8785V14.8906H7.89941V12H10.4385V9.79688C10.4385 7.29063 11.9314 5.90625 14.2156 5.90625C15.3097 5.90625 16.4541 6.10156 16.4541 6.10156V8.5625H15.1931C13.9509 8.5625 13.5635 9.33334 13.5635 10.1242V12H16.3369L15.8936 14.8906H13.5635V21.8785C18.3441 21.1283 22.001 16.9913 22.001 12C22.001 6.47715 17.5238 2 12.001 2Z" fill="currentColor"></path>
        </symbol>
        <symbol id="youtube" viewBox="0 0 24 24">
            <path d="M12.2439 4C12.778 4.00294 14.1143 4.01586 15.5341 4.07273L16.0375 4.09468C17.467 4.16236 18.8953 4.27798 19.6037 4.4755C20.5486 4.74095 21.2913 5.5155 21.5423 6.49732C21.942 8.05641 21.992 11.0994 21.9982 11.8358L21.9991 11.9884L21.9991 11.9991C21.9991 11.9991 21.9991 12.0028 21.9991 12.0099L21.9982 12.1625C21.992 12.8989 21.942 15.9419 21.5423 17.501C21.2878 18.4864 20.5451 19.261 19.6037 19.5228C18.8953 19.7203 17.467 19.8359 16.0375 19.9036L15.5341 19.9255C14.1143 19.9824 12.778 19.9953 12.2439 19.9983L12.0095 19.9991L11.9991 19.9991C11.9991 19.9991 11.9956 19.9991 11.9887 19.9991L11.7545 19.9983C10.6241 19.9921 5.89772 19.941 4.39451 19.5228C3.4496 19.2573 2.70692 18.4828 2.45587 17.501C2.0562 15.9419 2.00624 12.8989 2 12.1625V11.8358C2.00624 11.0994 2.0562 8.05641 2.45587 6.49732C2.7104 5.51186 3.45308 4.73732 4.39451 4.4755C5.89772 4.05723 10.6241 4.00622 11.7545 4H12.2439ZM9.99911 8.49914V15.4991L15.9991 11.9991L9.99911 8.49914Z" fill="currentColor"></path>
        </symbol>
        <symbol id="instagram" viewBox="0 0 24 24">
            <path d="M12.001 9C10.3436 9 9.00098 10.3431 9.00098 12C9.00098 13.6573 10.3441 15 12.001 15C13.6583 15 15.001 13.6569 15.001 12C15.001 10.3427 13.6579 9 12.001 9ZM12.001 7C14.7614 7 17.001 9.2371 17.001 12C17.001 14.7605 14.7639 17 12.001 17C9.24051 17 7.00098 14.7629 7.00098 12C7.00098 9.23953 9.23808 7 12.001 7ZM18.501 6.74915C18.501 7.43926 17.9402 7.99917 17.251 7.99917C16.5609 7.99917 16.001 7.4384 16.001 6.74915C16.001 6.0599 16.5617 5.5 17.251 5.5C17.9393 5.49913 18.501 6.0599 18.501 6.74915ZM12.001 4C9.5265 4 9.12318 4.00655 7.97227 4.0578C7.18815 4.09461 6.66253 4.20007 6.17416 4.38967C5.74016 4.55799 5.42709 4.75898 5.09352 5.09255C4.75867 5.4274 4.55804 5.73963 4.3904 6.17383C4.20036 6.66332 4.09493 7.18811 4.05878 7.97115C4.00703 9.0752 4.00098 9.46105 4.00098 12C4.00098 14.4745 4.00753 14.8778 4.05877 16.0286C4.0956 16.8124 4.2012 17.3388 4.39034 17.826C4.5591 18.2606 4.7605 18.5744 5.09246 18.9064C5.42863 19.2421 5.74179 19.4434 6.17187 19.6094C6.66619 19.8005 7.19148 19.9061 7.97212 19.9422C9.07618 19.9939 9.46203 20 12.001 20C14.4755 20 14.8788 19.9934 16.0296 19.9422C16.8117 19.9055 17.3385 19.7996 17.827 19.6106C18.2604 19.4423 18.5752 19.2402 18.9074 18.9085C19.2436 18.5718 19.4445 18.2594 19.6107 17.8283C19.8013 17.3358 19.9071 16.8098 19.9432 16.0289C19.9949 14.9248 20.001 14.5389 20.001 12C20.001 9.52552 19.9944 9.12221 19.9432 7.97137C19.9064 7.18906 19.8005 6.66149 19.6113 6.17318C19.4434 5.74038 19.2417 5.42635 18.9084 5.09255C18.573 4.75715 18.2616 4.55693 17.8271 4.38942C17.338 4.19954 16.8124 4.09396 16.0298 4.05781C14.9258 4.00605 14.5399 4 12.001 4ZM12.001 2C14.7176 2 15.0568 2.01 16.1235 2.06C17.1876 2.10917 17.9135 2.2775 18.551 2.525C19.2101 2.77917 19.7668 3.1225 20.3226 3.67833C20.8776 4.23417 21.221 4.7925 21.476 5.45C21.7226 6.08667 21.891 6.81333 21.941 7.8775C21.9885 8.94417 22.001 9.28333 22.001 12C22.001 14.7167 21.991 15.0558 21.941 16.1225C21.8918 17.1867 21.7226 17.9125 21.476 18.55C21.2218 19.2092 20.8776 19.7658 20.3226 20.3217C19.7668 20.8767 19.2076 21.22 18.551 21.475C17.9135 21.7217 17.1876 21.89 16.1235 21.94C15.0568 21.9875 14.7176 22 12.001 22C9.28431 22 8.94514 21.99 7.87848 21.94C6.81431 21.8908 6.08931 21.7217 5.45098 21.475C4.79264 21.2208 4.23514 20.8767 3.67931 20.3217C3.12348 19.7658 2.78098 19.2067 2.52598 18.55C2.27848 17.9125 2.11098 17.1867 2.06098 16.1225C2.01348 15.0558 2.00098 14.7167 2.00098 12C2.00098 9.28333 2.01098 8.94417 2.06098 7.8775C2.11014 6.8125 2.27848 6.0875 2.52598 5.45C2.78014 4.79167 3.12348 4.23417 3.67931 3.67833C4.23514 3.1225 4.79348 2.78 5.45098 2.525C6.08848 2.2775 6.81348 2.11 7.87848 2.06C8.94514 2.0125 9.28431 2 12.001 2Z" fill="currentColor"></path>
        </symbol>
        <symbol id="linkedin" viewBox="0 0 24 24">
            <path d="M18.3352 18.339H15.6697V14.1622C15.6697 13.1662 15.6495 11.8845 14.2807 11.8845C12.891 11.8845 12.6787 12.9683 12.6787 14.0887V18.339H10.0132V9.75H12.5737V10.9207H12.6082C12.966 10.2457 13.836 9.53325 15.1357 9.53325C17.8365 9.53325 18.336 11.3108 18.336 13.6245L18.3352 18.339ZM7.00275 8.57475C6.14475 8.57475 5.4555 7.88025 5.4555 7.026C5.4555 6.1725 6.1455 5.47875 7.00275 5.47875C7.85775 5.47875 8.55075 6.1725 8.55075 7.026C8.55075 7.88025 7.857 8.57475 7.00275 8.57475ZM8.33925 18.339H5.66625V9.75H8.33925V18.339ZM19.6687 3H4.32825C3.594 3 3 3.5805 3 4.29675V19.7033C3 20.4202 3.594 21 4.32825 21H19.6665C20.4 21 21 20.4202 21 19.7033V4.29675C21 3.5805 20.4 3 19.6665 3H19.6687Z" fill="currentColor"></path>
        </symbol>

        <!-- Other Icons -->
        <symbol id="arrow-left" viewBox="0 0 24 24">
            <path d="M7.373 12.75H19.5V11.25H7.373L13.0692 5.55375L12 4.5L4.5 12L12 19.5L13.0692 18.4462L7.373 12.75Z" fill="currentColor"/>
        </symbol>
        <symbol id="arrow-right" viewBox="0 0 24 24">
            <path d="M16.627 12.75H4.5V11.25H16.627L10.9308 5.55375L12 4.5L19.5 12L12 19.5L10.9308 18.4462L16.627 12.75Z" fill="currentColor"/>
        </symbol>
        <symbol id="circle-arrow-left" viewBox="0 0 24 24">
            <path d="M12 15.6443L13.0443 14.6L11.1942 12.75H15.75V11.25H11.1942L13.0443 9.4L12 8.35575L8.35575 12L12 15.6443ZM12.0018 21.5C10.6878 21.5 9.45267 21.2507 8.2965 20.752C7.14033 20.2533 6.13467 19.5766 5.2795 18.7218C4.42433 17.8669 3.74725 16.8617 3.24825 15.706C2.74942 14.5503 2.5 13.3156 2.5 12.0018C2.5 10.6878 2.74933 9.45267 3.248 8.2965C3.74667 7.14033 4.42342 6.13467 5.27825 5.2795C6.13308 4.42433 7.13833 3.74725 8.294 3.24825C9.44967 2.74942 10.6844 2.5 11.9982 2.5C13.3123 2.5 14.5473 2.74933 15.7035 3.248C16.8597 3.74667 17.8653 4.42342 18.7205 5.27825C19.5757 6.13308 20.2528 7.13833 20.7518 8.294C21.2506 9.44967 21.5 10.6844 21.5 11.9982C21.5 13.3123 21.2507 14.5473 20.752 15.7035C20.2533 16.8597 19.5766 17.8653 18.7218 18.7205C17.8669 19.5757 16.8617 20.2528 15.706 20.7518C14.5503 21.2506 13.3156 21.5 12.0018 21.5Z" fill="currentColor"/>
        </symbol>
        <symbol id="circle-arrow-right" viewBox="0 0 24 24">
            <path d="M12 15.6443L15.6443 12L12 8.35575L10.9558 9.4L12.8057 11.25H8.25V12.75H12.8057L10.9558 14.6L12 15.6443ZM12.0018 21.5C10.6878 21.5 9.45267 21.2507 8.2965 20.752C7.14033 20.2533 6.13467 19.5766 5.2795 18.7218C4.42433 17.8669 3.74725 16.8617 3.24825 15.706C2.74942 14.5503 2.5 13.3156 2.5 12.0018C2.5 10.6878 2.74933 9.45267 3.248 8.2965C3.74667 7.14033 4.42342 6.13467 5.27825 5.2795C6.13308 4.42433 7.13833 3.74725 8.294 3.24825C9.44967 2.74942 10.6844 2.5 11.9982 2.5C13.3123 2.5 14.5473 2.74933 15.7035 3.248C16.8597 3.74667 17.8653 4.42342 18.7205 5.27825C19.5757 6.13308 20.2528 7.13833 20.7518 8.294C21.2506 9.44967 21.5 10.6844 21.5 11.9982C21.5 13.3123 21.2507 14.5473 20.752 15.7035C20.2533 16.8597 19.5766 17.8653 18.7218 18.7205C17.8669 19.5757 16.8617 20.2528 15.706 20.7518C14.5503 21.2506 13.3156 21.5 12.0018 21.5Z" fill="currentColor"/>
        </symbol>
        <symbol id="close" viewBox="0 0 24 24">
            <path d="m6.4 18.308-.708-.708 5.6-5.6-5.6-5.6.708-.708 5.6 5.6 5.6-5.6.708.708-5.6 5.6 5.6 5.6-.708.708-5.6-5.6-5.6 5.6Z" fill="currentColor"/>
        </symbol>
        <symbol id="close-sm" viewBox="0 0 24 24">
            <path d="M6.4 18.654 5.346 17.6l5.6-5.6-5.6-5.6L6.4 5.346l5.6 5.6 5.6-5.6L18.654 6.4l-5.6 5.6 5.6 5.6-1.054 1.054-5.6-5.6-5.6 5.6Z" fill="currentColor"/>
        </symbol>
        <symbol id="external" viewBox="0 0 24 24">
            <path d="M5.308 20.5c-.505 0-.933-.175-1.283-.525a1.745 1.745 0 0 1-.525-1.283V5.308c0-.505.175-.933.525-1.283.35-.35.778-.525 1.283-.525h6.307V5H5.308a.294.294 0 0 0-.212.096.294.294 0 0 0-.096.212v13.384c0 .077.032.148.096.212a.294.294 0 0 0 .212.096h13.384a.294.294 0 0 0 .212-.096.294.294 0 0 0 .096-.212v-6.307h1.5v6.307c0 .505-.175.933-.525 1.283-.35.35-.778.525-1.283.525H5.308Zm4.411-5.165L8.666 14.28 17.945 5H14V3.5h6.5V10H19V6.054l-9.28 9.28Z" fill="currentColor"/>
        </symbol>
        <symbol id="download" viewBox="0 0 24 24">
            <path d="m12 15.789-4.27-4.27 1.055-1.084L11.25 12.9V4.5h1.5v8.4l2.465-2.465 1.054 1.084L12 15.79ZM6.308 19.5c-.505 0-.933-.175-1.283-.525a1.745 1.745 0 0 1-.525-1.283v-2.711H6v2.711c0 .077.032.148.096.212a.294.294 0 0 0 .212.096h11.384a.294.294 0 0 0 .212-.096.294.294 0 0 0 .096-.212v-2.711h1.5v2.711c0 .505-.175.933-.525 1.283-.35.35-.778.525-1.283.525H6.308Z" fill="currentColor"/>
        </symbol>
        <symbol id="play" viewBox="0 0 24 24">
            <path d="M8 19V5l11 7-11 7Z" fill="currentColor"/>
        </symbol>
        <symbol id="plus" viewBox="0 0 24 24">
            <path d="M11.25 12.75H5.5v-1.5h5.75V5.5h1.5v5.75h5.75v1.5h-5.75v5.75h-1.5v-5.75Z" fill="currentColor"/>
        </symbol>
        <symbol id="dropdown-arrow" viewBox="0 0 24 24">
            <path d="M12 15.054 6.346 9.4 7.4 8.346l4.6 4.6 4.6-4.6L17.654 9.4 12 15.054Z" fill="currentColor"/>
        </symbol>
        <symbol id="calendar" viewBox="0 0 24 24">
            <path d="M8 13.85a.67.67 0 0 1-.488-.213.67.67 0 0 1-.212-.487.67.67 0 0 1 .212-.488A.67.67 0 0 1 8 12.45a.67.67 0 0 1 .487.213.67.67 0 0 1 .213.487.67.67 0 0 1-.213.487.67.67 0 0 1-.487.213Zm4 0a.67.67 0 0 1-.488-.213.67.67 0 0 1-.212-.487.67.67 0 0 1 .212-.488.67.67 0 0 1 .488-.212.67.67 0 0 1 .488.213.67.67 0 0 1 .212.487.67.67 0 0 1-.212.487.67.67 0 0 1-.488.213Zm4 0a.67.67 0 0 1-.488-.213.67.67 0 0 1-.212-.487.67.67 0 0 1 .212-.488.67.67 0 0 1 .488-.212.67.67 0 0 1 .488.213.67.67 0 0 1 .212.487.67.67 0 0 1-.212.487.67.67 0 0 1-.488.213ZM5.8 20.7c-.433 0-.792-.142-1.075-.425-.283-.283-.425-.642-.425-1.075V6.8c0-.433.142-.792.425-1.075.283-.283.642-.425 1.075-.425h2V3h.8v2.3h6.9V3h.7v2.3h2c.433 0 .792.142 1.075.425.283.283.425.642.425 1.075v12.4c0 .433-.142.792-.425 1.075-.283.283-.642.425-1.075.425H5.8Zm0-.7h12.4c.2 0 .383-.083.55-.25.167-.167.25-.35.25-.55v-8.4H5v8.4c0 .2.083.383.25.55.167.167.35.25.55.25ZM5 10.1h14V6.8c0-.2-.083-.383-.25-.55-.167-.167-.35-.25-.55-.25H5.8c-.2 0-.383.083-.55.25-.167.167-.25.35-.25.55v3.3Z" fill="currentColor"/>
        </symbol>
        
        <!-- Amenities Icons -->
        <symbol id="amenities-sleeps" viewBox="0 0 24 24">
            <path fill="currentColor" d="M1.5 19V5H3v9.5h8.25V7H19c.962 0 1.786.343 2.472 1.028.685.686 1.028 1.51 1.028 2.472V19H21v-3H3v3H1.5Zm5.499-5.942c-.71 0-1.315-.25-1.811-.747a2.47 2.47 0 0 1-.746-1.812c0-.71.25-1.315.747-1.812A2.47 2.47 0 0 1 7 7.942c.71 0 1.315.25 1.811.747a2.47 2.47 0 0 1 .746 1.812c0 .71-.25 1.315-.747 1.812a2.47 2.47 0 0 1-1.81.744Z"/>
        </symbol>
        <symbol id="amenities-bed" viewBox="0 0 24 24">
            <path fill="currentColor" d="M2.5 19v-5.5c0-.373.088-.735.265-1.085.177-.351.422-.64.735-.865V9c0-.699.242-1.29.726-1.774A2.413 2.413 0 0 1 6 6.5h4.25c.364 0 .69.07.979.213.288.141.545.337.771.587.226-.25.483-.446.771-.587a2.19 2.19 0 0 1 .979-.213H18c.699 0 1.29.242 1.774.726S20.5 8.301 20.5 9v2.55c.313.226.558.514.735.864.177.351.265.713.265 1.086V19H20v-2H4v2H2.5Zm10.25-8H19V9a.967.967 0 0 0-.288-.713A.968.968 0 0 0 18 8h-4.25a.968.968 0 0 0-.713.287.967.967 0 0 0-.287.713v2ZM5 11h6.25V9a.967.967 0 0 0-.287-.713A.968.968 0 0 0 10.25 8H6a.968.968 0 0 0-.713.287A.968.968 0 0 0 5 9v2Z"/>
        </symbol>
        <symbol id="amenities-house" viewBox="0 0 24 24">
            <path fill="currentColor" d="M4.5 21v-9.26l-1.868 1.433-.902-1.196L4.5 9.85V6.98H6V8.7l6-4.575 10.269 7.852-.902 1.18L19.5 11.74V21h-6.308v-5.885h-2.385V21H4.5Zm0-15.115c0-.718.242-1.33.726-1.837.484-.506 1.114-.76 1.89-.76.36 0 .635-.105.827-.316.192-.21.287-.47.287-.78h1.5c0 .718-.242 1.33-.726 1.837-.484.506-1.113.76-1.889.76-.36 0-.636.105-.828.316a1.117 1.117 0 0 0-.287.78H4.5Z"/>
        </symbol>
        <symbol id="amenities-bathroom" viewBox="0 0 24 24">
            <path fill="currentColor" d="M8 18a.967.967 0 0 1-.713-.288A.968.968 0 0 1 7 17a.97.97 0 0 1 .287-.712A.967.967 0 0 1 8 16a.97.97 0 0 1 .713.288c.191.191.287.429.287.712s-.096.52-.287.712A.967.967 0 0 1 8 18Zm4 0a.968.968 0 0 1-.713-.288A.968.968 0 0 1 11 17a.97.97 0 0 1 .287-.712A.968.968 0 0 1 12 16a.97.97 0 0 1 .713.288c.191.191.287.429.287.712s-.096.52-.287.712A.968.968 0 0 1 12 18Zm4 0a.968.968 0 0 1-.713-.288A.968.968 0 0 1 15 17a.97.97 0 0 1 .287-.712A.968.968 0 0 1 16 16c.283 0 .52.096.712.288.192.191.288.429.288.712s-.096.52-.288.712A.968.968 0 0 1 16 18ZM5 14v-2c0-1.767.567-3.3 1.7-4.6C7.833 6.1 9.267 5.333 11 5.1V3h2v2.1c1.733.233 3.167 1 4.3 2.3C18.433 8.7 19 10.233 19 12v2H5Zm3 7a.967.967 0 0 1-.713-.288A.968.968 0 0 1 7 20a.97.97 0 0 1 .287-.712A.967.967 0 0 1 8 19a.97.97 0 0 1 .713.288c.191.191.287.429.287.712s-.096.52-.287.712A.967.967 0 0 1 8 21Zm4 0a.968.968 0 0 1-.713-.288A.968.968 0 0 1 11 20a.97.97 0 0 1 .287-.712A.968.968 0 0 1 12 19a.97.97 0 0 1 .713.288c.191.191.287.429.287.712s-.096.52-.287.712A.968.968 0 0 1 12 21Zm4 0a.968.968 0 0 1-.713-.288A.968.968 0 0 1 15 20a.97.97 0 0 1 .287-.712A.968.968 0 0 1 16 19c.283 0 .52.096.712.288.192.191.288.429.288.712s-.096.52-.288.712A.968.968 0 0 1 16 21Z"/>
        </symbol>
        <symbol id="amenities-pets" viewBox="0 0 24 24">
            <path fill="currentColor" d="M4.501 11.625a1.93 1.93 0 0 1-1.42-.58A1.928 1.928 0 0 1 2.5 9.626c0-.56.193-1.033.58-1.42a1.93 1.93 0 0 1 1.419-.581c.56 0 1.033.193 1.42.58.387.386.581.86.581 1.419a1.93 1.93 0 0 1-.58 1.42 1.93 1.93 0 0 1-1.419.581Zm4.5-4a1.93 1.93 0 0 1-1.42-.58A1.928 1.928 0 0 1 7 5.626c0-.56.193-1.033.58-1.42a1.93 1.93 0 0 1 1.419-.581c.56 0 1.033.193 1.42.58.387.386.581.86.581 1.419a1.93 1.93 0 0 1-.58 1.42 1.93 1.93 0 0 1-1.419.581Zm6 0a1.93 1.93 0 0 1-1.42-.58A1.928 1.928 0 0 1 13 5.626c0-.56.193-1.033.58-1.42a1.93 1.93 0 0 1 1.419-.581c.56 0 1.033.193 1.42.58.387.386.581.86.581 1.419a1.93 1.93 0 0 1-.58 1.42 1.93 1.93 0 0 1-1.419.581Zm4.5 4a1.93 1.93 0 0 1-1.42-.58 1.928 1.928 0 0 1-.581-1.419c0-.56.193-1.033.58-1.42a1.93 1.93 0 0 1 1.419-.581c.56 0 1.033.193 1.42.58.387.386.581.86.581 1.419a1.93 1.93 0 0 1-.58 1.42 1.93 1.93 0 0 1-1.419.581Zm-12.851 10a1.938 1.938 0 0 1-1.541-.714 2.516 2.516 0 0 1-.609-1.686c0-.815.286-1.513.859-2.092a64.67 64.67 0 0 0 1.676-1.762c.483-.53.903-1.095 1.26-1.697.356-.602.769-1.17 1.24-1.703.328-.37.7-.686 1.114-.95A2.467 2.467 0 0 1 12 10.625c.5 0 .964.127 1.39.38.427.255.798.572 1.114.954a10.99 10.99 0 0 1 1.228 1.707c.352.603.763 1.172 1.233 1.705a64.52 64.52 0 0 0 1.676 1.762 2.87 2.87 0 0 1 .859 2.092c0 .648-.203 1.21-.609 1.686-.405.476-.92.714-1.541.714-.9 0-1.792-.075-2.675-.225a15.95 15.95 0 0 0-5.35 0 15.95 15.95 0 0 1-2.675.225Z"/>
        </symbol>
        <symbol id="amenities-hot-tub" viewBox="0 0 24 24">
            <path fill="currentColor" d="M7 8c-.55 0-1.02-.196-1.412-.588A1.926 1.926 0 0 1 5 6c0-.55.196-1.02.588-1.412A1.926 1.926 0 0 1 7 4c.55 0 1.02.196 1.412.588C8.804 4.979 9 5.45 9 6c0 .55-.196 1.02-.588 1.412A1.926 1.926 0 0 1 7 8ZM4 22c-.55 0-1.02-.196-1.413-.587A1.926 1.926 0 0 1 2 20v-8h3v-.75c0-.633.217-1.167.65-1.6.433-.433.967-.65 1.6-.65.333 0 .642.067.925.2.283.133.542.317.775.55l1.4 1.55a3.998 3.998 0 0 0 .8.7H22v8c0 .55-.196 1.02-.587 1.413A1.926 1.926 0 0 1 20 22H4Zm14-12 .1-.6a2.22 2.22 0 0 0-.088-1.213 2.798 2.798 0 0 0-.662-1.037 4.565 4.565 0 0 1-1.075-1.688 4.317 4.317 0 0 1-.225-2.012L16.1 3H18l-.1.6a2.5 2.5 0 0 0 .088 1.187c.125.392.329.73.612 1.013.5.5.87 1.075 1.112 1.725.242.65.321 1.325.238 2.025l-.05.45H18Zm-4 0 .1-.6a2.22 2.22 0 0 0-.088-1.213 2.798 2.798 0 0 0-.662-1.037 4.565 4.565 0 0 1-1.075-1.688 4.317 4.317 0 0 1-.225-2.012L12.1 3H14l-.1.6c-.083.4-.058.796.075 1.187.133.392.342.73.625 1.013.5.5.87 1.075 1.113 1.725.241.65.32 1.325.237 2.025l-.05.45H14Zm3 10h2v-6h-2v6Zm-4 0h2v-6h-2v6Zm-4 0h2v-6H9v6Zm-4 0h2v-6H5v6Z"/>
        </symbol>
        <symbol id="amenities-dining" viewBox="0 0 24 24">
            <path fill="currentColor" d="M7 22v-9.15a4.123 4.123 0 0 1-2.138-1.4C4.287 10.75 4 9.933 4 9V2h2v7h1V2h2v7h1V2h2v7c0 .933-.287 1.75-.863 2.45A4.123 4.123 0 0 1 9 12.85V22H7Zm10 0v-8h-3V7c0-1.383.488-2.563 1.463-3.538C16.438 2.487 17.617 2 19 2v20h-2Z"/>
        </symbol>
        <symbol id="amenities-kitchen" viewBox="0 0 24 24">
            <path fill="currentColor" d="M5 20a2.893 2.893 0 0 1-2.125-.875A2.893 2.893 0 0 1 2 17v-5h14.025a2.868 2.868 0 0 1 .675-1.488 3.07 3.07 0 0 1 1.35-.912l4.625-1.55.625 1.9-4.625 1.55a.959.959 0 0 0-.488.363.987.987 0 0 0-.187.587V17c0 .833-.292 1.542-.875 2.125A2.893 2.893 0 0 1 15 20H5Zm-.575-10c.233-.6.27-1.133.112-1.6-.158-.467-.429-.933-.812-1.4-.55-.667-.913-1.296-1.087-1.888C2.463 4.521 2.433 3.817 2.55 3H4.5c-.133.633-.154 1.15-.063 1.55.092.4.33.833.713 1.3.633.767 1.037 1.446 1.212 2.038.175.591.18 1.295.013 2.112h-1.95Zm4 0c.233-.6.275-1.133.125-1.6-.15-.467-.417-.933-.8-1.4-.55-.667-.917-1.296-1.1-1.888-.183-.591-.217-1.295-.1-2.112H8.5c-.133.633-.154 1.15-.063 1.55.092.4.33.833.713 1.3.633.767 1.037 1.446 1.213 2.038.175.591.179 1.295.012 2.112h-1.95Zm4 0c.233-.6.275-1.133.125-1.6-.15-.467-.417-.933-.8-1.4-.55-.667-.917-1.296-1.1-1.888-.183-.591-.217-1.295-.1-2.112h1.95c-.133.633-.154 1.15-.063 1.55.092.4.33.833.713 1.3.633.767 1.037 1.446 1.213 2.038.175.591.179 1.295.012 2.112h-1.95Z"/>
        </symbol>
        <symbol id="amenities-outdoor-dining" viewBox="0 0 24 24">
            <path fill="currentColor" d="M11 22V9H2l10-7 10 7h-9v13h-2Zm-8 0v-5.25l-.8-4.4L4.15 12l.75 4H9v6H7v-4H5v4H3Zm12 0v-6h4.1l.75-4 1.95.35-.8 4.4V22h-2v-4h-2v4h-2Z"/>
        </symbol>
        <symbol id="amenities-wifi" viewBox="0 0 24 24">
            <path fill="currentColor" d="M12 21c-.7 0-1.292-.242-1.775-.725C9.742 19.792 9.5 19.2 9.5 18.5s.242-1.292.725-1.775C10.708 16.242 11.3 16 12 16s1.292.242 1.775.725c.483.483.725 1.075.725 1.775s-.242 1.292-.725 1.775C13.292 20.758 12.7 21 12 21Zm-5.65-5.65-2.1-2.15a11.084 11.084 0 0 1 3.463-2.337C9.037 10.288 10.466 10 12 10s2.963.292 4.288.875a11.045 11.045 0 0 1 3.462 2.375l-2.1 2.1a8.112 8.112 0 0 0-2.55-1.725c-.967-.417-2-.625-3.1-.625s-2.133.208-3.1.625a8.113 8.113 0 0 0-2.55 1.725ZM2.1 11.1 0 9a16.675 16.675 0 0 1 5.375-3.675C7.425 4.442 9.633 4 12 4s4.575.442 6.625 1.325A16.675 16.675 0 0 1 24 9l-2.1 2.1a14.108 14.108 0 0 0-4.462-3.012C15.745 7.363 13.933 7 12 7c-1.933 0-3.746.362-5.438 1.088A14.109 14.109 0 0 0 2.1 11.1Z"/>
        </symbol>
        <symbol id="amenities-ev-charging" viewBox="0 0 24 24">
            <path fill="currentColor" d="M6 10h6V5H6v5ZM4 21V5c0-.55.196-1.02.588-1.413A1.926 1.926 0 0 1 6 3h6c.55 0 1.02.196 1.412.587C13.804 3.98 14 4.45 14 5v7h1.25c.483 0 .896.17 1.238.512.341.342.512.755.512 1.238v4.625c0 .283.117.542.35.775.233.233.492.35.775.35.3 0 .563-.117.788-.35.224-.233.337-.492.337-.775V9H19a.968.968 0 0 1-.712-.287A.967.967 0 0 1 18 8V6h.5V4.5h1V6h1V4.5h1V6h.5v2a.97.97 0 0 1-.288.713A.968.968 0 0 1 21 9h-.25v9.375c0 .7-.254 1.313-.762 1.837a2.493 2.493 0 0 1-1.863.788c-.717 0-1.333-.262-1.85-.788-.517-.524-.775-1.137-.775-1.837V13.75c0-.083-.02-.146-.063-.188-.041-.041-.104-.062-.187-.062H14V21H4Zm4.5-2 2.5-4H9.5v-3L7 16h1.5v3Z"/>
        </symbol>
        <symbol id="amenities-radio" viewBox="0 0 24 24">
            <path fill="currentColor" d="M4 22c-.55 0-1.02-.196-1.413-.587A1.926 1.926 0 0 1 2 20V6.65L15.9 1l.65 1.65L8.3 6H20c.55 0 1.02.196 1.413.588.391.391.587.862.587 1.412v12c0 .55-.196 1.02-.587 1.413A1.926 1.926 0 0 1 20 22H4Zm4-3c.7 0 1.292-.242 1.775-.725.483-.483.725-1.075.725-1.775s-.242-1.292-.725-1.775C9.292 14.242 8.7 14 8 14s-1.292.242-1.775.725C5.742 15.208 5.5 15.8 5.5 16.5s.242 1.292.725 1.775C6.708 18.758 7.3 19 8 19Zm-4-8h12V9h2v2h2V8H4v3Z"/>
        </symbol>
        <symbol id="amenities-tv" viewBox="0 0 24 24">
            <path fill="currentColor" d="M8 21v-2H4c-.55 0-1.02-.196-1.413-.587A1.926 1.926 0 0 1 2 17V5c0-.55.196-1.02.587-1.413A1.926 1.926 0 0 1 4 3h16c.55 0 1.02.196 1.413.587.39.393.587.863.587 1.413v12c0 .55-.196 1.02-.587 1.413A1.926 1.926 0 0 1 20 19h-4v2H8Zm-4-4h16V5H4v12Z"/>
        </symbol>
        <symbol id="amenities-wheelchair" viewBox="0 0 24 24">
            <path fill="currentColor" d="M12 6c-.55 0-1.02-.196-1.412-.588A1.926 1.926 0 0 1 10 4c0-.55.196-1.02.588-1.413A1.926 1.926 0 0 1 12 2c.55 0 1.02.196 1.412.587C13.804 2.98 14 3.45 14 4s-.196 1.02-.588 1.412A1.926 1.926 0 0 1 12 6Zm5 16v-5h-5c-.55 0-1.02-.196-1.412-.587A1.926 1.926 0 0 1 10 15V9c0-.55.196-1.02.588-1.412A1.926 1.926 0 0 1 12 7c.4 0 .746.088 1.037.263.292.175.605.454.938.837.917 1.1 1.746 1.854 2.487 2.263.742.408 1.588.62 2.538.637v2c-.883 0-1.775-.192-2.675-.575-.9-.383-1.675-.842-2.325-1.375v3.45h3c.55 0 1.02.196 1.413.588.391.391.587.862.587 1.412V22h-2Zm-7 0c-1.383 0-2.563-.488-3.537-1.462C5.487 19.562 5 18.383 5 17c0-1.2.38-2.258 1.138-3.175C6.896 12.908 7.85 12.333 9 12.1v2.05a3.257 3.257 0 0 0-1.438 1.112A2.851 2.851 0 0 0 7 17c0 .833.292 1.542.875 2.125A2.893 2.893 0 0 0 10 20c.65 0 1.23-.188 1.738-.563A3.257 3.257 0 0 0 12.85 18h2.05c-.233 1.15-.808 2.104-1.725 2.863A4.836 4.836 0 0 1 10 22Z"/>
        </symbol>
        <symbol id="amenities-hairdryer" viewBox="0 0 24 24">
            <path fill="currentColor" d="m16.633 19.37 2.96-6.52a6 6 0 0 0-3.843-10.6.788.788 0 0 0-.124.01L2.753 4.406A1.5 1.5 0 0 0 1.5 5.886v4.728a1.5 1.5 0 0 0 1.253 1.48L12 13.635v5.115a1.5 1.5 0 0 0 1.5 1.5A3.75 3.75 0 0 0 17.25 24h1.5a.75.75 0 1 0 0-1.5h-1.5A2.25 2.25 0 0 1 15 20.25h.267a1.5 1.5 0 0 0 1.366-.88ZM18 8.25a2.25 2.25 0 1 1-4.5 0 2.25 2.25 0 0 1 4.5 0Zm-2.374 5.99a.79.79 0 0 0 .124.01 5.97 5.97 0 0 0 1.67-.238l-2.156 4.738H13.5v-4.865l2.126.355Z"/>
        </symbol>
        <symbol id="amenities-gift" viewBox="0 0 24 24">
            <path fill="currentColor" d="M20.25 6.75h-3.289c.037-.03.074-.06.11-.094A2.768 2.768 0 0 0 18 4.647 3.057 3.057 0 0 0 14.854 1.5a2.768 2.768 0 0 0-2.01.93A5.15 5.15 0 0 0 12 3.786a5.15 5.15 0 0 0-.844-1.358 2.768 2.768 0 0 0-2.01-.929A3.058 3.058 0 0 0 6 4.647a2.768 2.768 0 0 0 .93 2.01c.035.03.072.06.109.093H3.75a1.5 1.5 0 0 0-1.5 1.5v3a1.5 1.5 0 0 0 1.5 1.5v6a1.5 1.5 0 0 0 1.5 1.5h5.625a.375.375 0 0 0 .375-.375V11.25h-7.5v-3h7.5v3h1.5v-3h7.5v3h-7.5v8.625a.375.375 0 0 0 .375.375h5.625a1.5 1.5 0 0 0 1.5-1.5v-6a1.5 1.5 0 0 0 1.5-1.5v-3a1.5 1.5 0 0 0-1.5-1.5ZM7.923 5.531a1.283 1.283 0 0 1-.422-.937A1.558 1.558 0 0 1 9.055 3h.046a1.284 1.284 0 0 1 .938.422c.786.889 1.064 2.362 1.161 3.274-.915-.097-2.387-.374-3.277-1.165Zm8.156 0c-.89.788-2.366 1.065-3.281 1.163.111-.986.42-2.428 1.17-3.271A1.283 1.283 0 0 1 14.907 3h.046a1.559 1.559 0 0 1 1.548 1.6 1.285 1.285 0 0 1-.423.93h.002Z"/>
        </symbol>

    </defs>
</svg>
