<svg xmlns="http://www.w3.org/2000/svg" width="75" height="72" fill="none" viewBox="0 0 75 72">
  <path fill="#F0EDEA" d="m40.106.28-.013.106c-.233.05-.364.186-.395.414a1.48 1.48 0 0 0 0 .342c.013.135.052.334.11.606l.648 3.217-.334.327 1.91-3.404.138.402-2.313 3.97-.214-.028-.895-4.085a23.39 23.39 0 0 0-.283-1.114 3.157 3.157 0 0 0-.24-.629.834.834 0 0 0-.262-.298L37.976 0l2.122.282.008-.002Zm3.32.44-.016.106a.573.573 0 0 0-.33.125.432.432 0 0 0-.146.28c-.013.093-.01.214.005.365.016.15.047.347.094.593l.673 3.22-.311.245 1.187-2.434c.155-.314.275-.588.359-.824.084-.236.136-.417.152-.541.028-.213.007-.384-.063-.516s-.204-.249-.4-.347l.013-.106 1.85.246-.014.106a.906.906 0 0 0-.418.23c-.139.125-.288.317-.453.573-.165.256-.358.6-.586 1.033L43.13 6.693l-.214-.029-.976-4.55a6.698 6.698 0 0 0-.196-.827 2.516 2.516 0 0 0-.202-.474.772.772 0 0 0-.248-.266l.013-.107 2.111.28h.008Zm4.471 7.473a2.579 2.579 0 0 1-1.206-.858 2.613 2.613 0 0 1-.513-1.37c-.047-.526.04-1.088.262-1.689.207-.557.49-1.015.853-1.38a2.702 2.702 0 0 1 1.211-.728c.445-.122.89-.101 1.34.062.591.215 1 .567 1.227 1.057.228.49.23 1.036.008 1.634l-.094.257-3.65-1.321.07-.19 1.555.513c.418.135.732.177.947.13.214-.047.366-.194.455-.44.115-.311.11-.599-.016-.858-.125-.259-.345-.445-.66-.56a1.28 1.28 0 0 0-.844-.022c-.28.088-.534.259-.761.512a3.063 3.063 0 0 0-.57.992 3.694 3.694 0 0 0-.244 1.52c.031.488.17.91.41 1.265.241.357.574.611.992.761.518.187.994.169 1.437-.06l.044.055c-.364.389-.733.642-1.102.762a1.72 1.72 0 0 1-1.15-.04v-.004Zm5.783 2.952c-.458-.316-.736-.697-.833-1.145-.096-.448.003-.885.307-1.313.355-.505.884-.826 1.588-.96.704-.135 1.65-.097 2.838.118l-.028.166c-.85-.077-1.528-.03-2.033.132a2.36 2.36 0 0 0-1.217.9c-.259.37-.377.727-.348 1.074.029.347.199.63.513.844.21.145.463.215.764.21.3-.005.586-.07.863-.2l.04.07c-.448.288-.874.441-1.285.457a1.891 1.891 0 0 1-1.164-.355l-.006.002Zm2.58 1.637c-.294-.202-.461-.427-.498-.668-.037-.244.032-.573.21-.99l1.206-2.704c.201-.437.334-.79.402-1.056.066-.267.069-.485.008-.653-.06-.168-.19-.319-.387-.456-.222-.153-.434-.217-.636-.194-.201.023-.403.145-.604.362-.212.231-.41.28-.6.148a.368.368 0 0 1-.17-.254.417.417 0 0 1 .087-.308.842.842 0 0 1 .547-.342 1.73 1.73 0 0 1 .8.055c.296.082.594.23.895.437.55.381.871.79.966 1.228.094.44-.021.997-.34 1.67l-1.327 2.855c-.12.254-.19.471-.21.65-.018.179.011.31.09.394l-.063.088-.372-.257-.005-.005Zm.418.438.073-.078c.13.08.257.106.374.075.118-.03.251-.121.4-.277l2.85-2.955c.193-.2.311-.365.355-.497a.67.67 0 0 0-.023-.448l.073-.078 1.206.86-.98 1.103-2.51 2.603c-.199.205-.309.389-.33.55-.02.16.042.352.189.577l-.073.078-1.602-1.513h-.002Zm4.194-2.176.005-.109c.434-.256.837-.401 1.209-.437.371-.037.654.039.853.223.115.108.18.222.193.339a.396.396 0 0 1-.128.329.418.418 0 0 1-.293.14.418.418 0 0 1-.298-.127.674.674 0 0 1-.165-.223.679.679 0 0 0-.15-.205.583.583 0 0 0-.444-.158c-.175.01-.434.086-.782.228Zm-.092 6.724c-.335-.422-.523-.875-.565-1.36a2.606 2.606 0 0 1 .298-1.432c.241-.471.615-.904 1.125-1.298.471-.365.958-.606 1.463-.725.502-.119.976-.114 1.415.016.44.13.809.38 1.104.753.388.492.547 1.005.48 1.539-.071.534-.36.997-.867 1.39l-.217.17-2.394-3.034.16-.124 1.046 1.248c.283.332.529.534.735.604.207.07.414.026.623-.135.264-.205.41-.448.445-.736.031-.284-.055-.559-.262-.82a1.266 1.266 0 0 0-.704-.462 1.755 1.755 0 0 0-.92.037c-.33.096-.668.277-1.013.544a3.693 3.693 0 0 0-1.018 1.162c-.233.43-.34.86-.327 1.29.016.43.16.819.434 1.166.338.43.757.663 1.251.702l.008.067c-.518.14-.965.163-1.342.07a1.74 1.74 0 0 1-.958-.634v.002Zm8.739 2.552-.1.038c-.157-.176-.342-.22-.557-.137-.089.036-.188.09-.298.168-.11.078-.27.21-.479.394l-2.512 2.14-.45-.127 3.933-.026-.285.316-4.629-.044-.08-.197 3.154-2.78c.354-.318.634-.582.84-.792.207-.21.353-.38.435-.515a.79.79 0 0 0 .133-.37l.1-.04.795 1.969v.002Zm1.242 3.076-.099.04a.587.587 0 0 0-.27-.226.432.432 0 0 0-.316.01 1.598 1.598 0 0 0-.32.184 7.97 7.97 0 0 0-.473.373l-2.5 2.163-.37-.148 2.726-.173c.354-.02.654-.052.903-.096a3.2 3.2 0 0 0 .552-.135c.199-.08.34-.181.424-.308.081-.127.118-.298.107-.515l.1-.04.693 1.715-.1.04a.898.898 0 0 0-.408-.247 2.975 2.975 0 0 0-.727-.109 16.632 16.632 0 0 0-1.198 0l-4.113.148-.081-.197 3.524-3.077a6.59 6.59 0 0 0 .63-.575 2.48 2.48 0 0 0 .32-.406.753.753 0 0 0 .112-.345l.1-.039.79 1.958-.005.006Zm1.139 4.049.463 1.453-5.22 1.028c-.212.042-.36.106-.45.192a.484.484 0 0 0-.138.347l-.105.02-.38-1.893.105-.02c.06.14.15.233.262.274.115.041.277.041.486 0l4.024-.793c.283-.054.482-.124.6-.207a.657.657 0 0 0 .245-.38l.105-.021h.003Zm2.448.412a.66.66 0 0 1-.102.526.649.649 0 0 1-.926.181.677.677 0 0 1-.298-.448.663.663 0 0 1 .102-.526.657.657 0 0 1 .43-.29.634.634 0 0 1 .496.109c.16.106.26.253.299.448Zm-7.775 3.442.107-.01a.483.483 0 0 0 .235.292c.11.057.273.075.487.052l6.402-.645c.278-.028.477-.078.6-.15a.688.688 0 0 0 .277-.355l.107-.01.215 1.502-7.486.754c-.214.02-.369.07-.465.147a.473.473 0 0 0-.17.332l-.108.01-.196-1.92h-.005Zm.159 6.589.971-.013 6.248.29c.277.013.484-.007.612-.06a.68.68 0 0 0 .327-.31l.107.005-.01 1.492-7.266-.34c-.311-.015-.536.006-.672.063a.464.464 0 0 0-.277.308l-.108-.005.068-1.432v.002Zm-.041-1.637c.023-.505.177-.937.463-1.3.285-.363.672-.637 1.159-.824.486-.186 1.054-.264 1.7-.235.589.028 1.115.16 1.575.398.46.239.82.55 1.076.928.256.38.374.797.353 1.256a2.303 2.303 0 0 1-.372 1.163c-.227.35-.554.645-.98.886l-2.513-.58c1.139.054 2.018-.052 2.638-.316.62-.265.942-.679.97-1.246.021-.417-.154-.76-.52-1.026-.367-.267-.869-.414-1.505-.443a4.836 4.836 0 0 0-1.297.106c-.411.091-.78.226-1.105.404-.324.18-.58.389-.771.627a1.319 1.319 0 0 0-.306.775c-.01.22.028.42.12.598.091.179.233.34.426.482l-.052.07c-.335-.15-.6-.381-.793-.694a1.743 1.743 0 0 1-.261-1.026l-.005-.003Zm5.583 4.952-.136 1.518-5.22-1.036c-.212-.041-.374-.041-.49.005a.487.487 0 0 0-.26.267l-.105-.02.384-1.894.105.02c0 .154.047.273.136.353.089.083.238.145.45.187l4.021.797c.283.057.492.068.633.037a.687.687 0 0 0 .377-.257l.105.02v.003Zm2.1 1.311a.676.676 0 0 1-.298.448c-.16.106-.324.14-.497.106a.657.657 0 0 1-.429-.29.68.68 0 0 1-.102-.528.676.676 0 0 1 .299-.448.655.655 0 0 1 .928.184.664.664 0 0 1 .1.526v.002Zm-9.654 3.6.103.037a.459.459 0 0 0 .078.37c.076.096.215.179.416.254l2.873 1.046c.554.202 1.004.252 1.352.145.348-.103.6-.36.751-.766.081-.215.097-.454.055-.713a2.01 2.01 0 0 0-.3-.753l.057-.016c.311.306.515.658.615 1.057.1.396.078.782-.058 1.153-.204.549-.531.911-.981 1.093-.45.18-.981.16-1.596-.063l-3.155-1.15c-.202-.072-.364-.098-.482-.075a.48.48 0 0 0-.303.23l-.102-.035.672-1.811.005-.003Zm1.27-3.41.101.035a.459.459 0 0 0 .079.37c.076.097.214.18.416.255l3.862 1.406c.261.096.465.137.61.127a.67.67 0 0 0 .41-.197l.102.036-.317 1.438-1.12-.344-3.93-1.433c-.2-.072-.363-.098-.48-.075-.118.023-.22.101-.304.23l-.102-.036.672-1.81v-.003Zm-5.338 6.648c.434-.7.88-1.186 1.34-1.458.457-.272.868-.298 1.23-.08.277.168.454.43.53.782.076.352.042.743-.102 1.173l-.104.034a1.093 1.093 0 0 0-.144-.65 1.344 1.344 0 0 0-.484-.51c-.332-.203-.686-.226-1.06-.068s-.706.471-1 .943c-.295.476-.441.917-.436 1.318.005.402.16.694.466.88.211.128.42.161.627.097.207-.065.422-.236.644-.518l1.065-1.311c.303-.37.591-.609.863-.712a.858.858 0 0 1 .793.08c.217.132.361.345.427.635.067.29.036.613-.092.974l-.102.007a.96.96 0 0 0-.024-.494.552.552 0 0 0-.227-.298.374.374 0 0 0-.398-.006c-.136.076-.314.254-.536.537l-1.055 1.36c-.33.411-.662.665-.994.764-.332.098-.672.044-1.02-.169a1.577 1.577 0 0 1-.68-.816c-.129-.347-.152-.733-.074-1.163.079-.43.262-.873.544-1.328l.003-.003Zm7.164 4.269-.427.686c-.11.176-.16.319-.154.427a.771.771 0 0 0 .146.373.903.903 0 0 1 .12.296.34.34 0 0 1-.06.24.43.43 0 0 1-.248.197.375.375 0 0 1-.306-.049.455.455 0 0 1-.225-.45c.013-.203.115-.456.306-.767l.149-.241-.031-.018c-.322.277-.665.432-1.026.466-.364.034-.722-.057-1.075-.272a1.827 1.827 0 0 1-.722-.772 1.89 1.89 0 0 1-.168-1.02c.037-.368.17-.739.406-1.117.23-.37.502-.655.819-.857.316-.202.648-.308.996-.319a1.85 1.85 0 0 1 1.023.288c.333.202.573.458.725.766.15.309.204.648.162 1.016-.042.368-.178.74-.413 1.119l.003.008Zm-.204-.125a.934.934 0 0 0 .052-.932c-.15-.327-.45-.63-.906-.904-.455-.277-.865-.407-1.232-.389-.366.018-.638.171-.819.461a.89.89 0 0 0-.133.614c.031.215.13.425.3.635.17.21.404.404.705.588.455.277.863.409 1.221.393a.942.942 0 0 0 .814-.463l-.002-.003Zm-5.192.93c-.68-.238-1.273-.332-1.776-.28a1.855 1.855 0 0 0-1.237.617c-.217.243-.317.495-.301.756.015.262.144.497.384.707.21.184.435.277.678.285.243.008.497-.036.759-.135.261-.095.533-.207.813-.331.28-.124.56-.225.838-.303.277-.078.552-.104.826-.075.272.028.534.153.785.37.238.21.4.45.487.725.084.275.091.557.018.847-.073.29-.227.568-.466.834a2.214 2.214 0 0 1-.392.36 5.34 5.34 0 0 1-.335.215.967.967 0 0 0-.243.192c-.12.137-.162.259-.12.368l-.063.07-1.568-1.07.079-.088c.584.194 1.078.272 1.486.24.408-.033.733-.186.976-.458.196-.22.293-.448.29-.683 0-.239-.104-.448-.313-.632a.771.771 0 0 0-.595-.202c-.222.015-.46.075-.716.178-.257.104-.524.218-.8.342-.278.127-.56.226-.846.296-.285.07-.576.082-.866.04-.29-.04-.576-.188-.858-.432-.414-.36-.63-.777-.652-1.248-.02-.471.155-.917.532-1.337.175-.194.34-.354.5-.479.159-.124.297-.23.42-.318.12-.088.218-.171.286-.249.13-.148.188-.282.17-.404l.063-.07 1.834 1.272-.079.088.003-.008Zm-7.875 7.926 2.67-1.842.355.505-2.669 1.842-.356-.505Zm-10.905 1.43.032.1a.484.484 0 0 0-.254.275c-.034.109-.023.254.034.435l.934 3.049c.17.551.377.927.62 1.126.244.2.55.244.916.133.251-.076.46-.213.625-.41.165-.197.286-.453.367-.766l.088.085c-.083.487-.25.883-.497 1.189a1.92 1.92 0 0 1-.968.637c-.51.153-.944.117-1.303-.109-.358-.227-.628-.64-.81-1.235l-1.037-3.378c-.055-.18-.128-.308-.217-.38-.089-.073-.21-.101-.364-.088l-.03-.101 1.864-.56v-.002Zm3.284-.987.031.1a.484.484 0 0 0-.253.275c-.034.11-.021.254.034.435l.934 3.049c.17.56.377.938.614 1.132.239.197.542.238.908.13.23-.07.424-.195.587-.374.162-.18.29-.409.39-.686l.046.073c-.055.42-.204.784-.452 1.087-.249.306-.57.518-.968.638-.497.147-.924.106-1.282-.13-.359-.236-.628-.642-.806-1.225L45.67 63.92c-.055-.18-.128-.308-.217-.38-.09-.073-.21-.101-.364-.088l-.031-.101 1.865-.56v.003Zm3.24-.974.03.1c-.136.076-.22.17-.25.286-.032.116-.016.277.046.481l1.196 3.899c.081.264.17.45.264.556.094.11.23.177.406.208l.031.1-1.347.617-.398-1.093-1.217-3.965c-.062-.205-.138-.347-.23-.425-.091-.08-.214-.114-.369-.101l-.031-.101 1.865-.56.003-.002Zm-13.718 2.582c.358-.018.628.06.808.228.18.168.33.472.445.91l.714 2.87c.11.468.223.828.335 1.08.113.25.243.424.398.52.151.096.348.137.586.127.27-.013.479-.091.622-.23.144-.143.23-.36.257-.654.026-.308.152-.468.384-.481a.379.379 0 0 1 .294.098c.075.07.115.171.122.295a.829.829 0 0 1-.222.604 1.69 1.69 0 0 1-.667.44 3.108 3.108 0 0 1-.979.195c-.67.03-1.177-.099-1.522-.389-.346-.293-.6-.8-.764-1.528l-.712-3.06a2.017 2.017 0 0 0-.235-.639c-.095-.153-.2-.24-.312-.259l-.005-.106.455-.02h-.002Zm3.053-.264c.557-.026 1.012.109 1.366.404.353.295.544.702.567 1.223.03.613-.19 1.188-.664 1.72-.474.533-1.248 1.072-2.324 1.623l-.078-.15c.72-.453 1.23-.899 1.528-1.336.298-.438.434-.92.408-1.448-.02-.45-.152-.803-.387-1.06-.236-.256-.544-.378-.926-.36-.254.013-.5.112-.735.296a2.049 2.049 0 0 0-.56.678l-.074-.03c.176-.498.422-.879.736-1.138a1.868 1.868 0 0 1 1.14-.422h.003Zm-7.519-.295-.079.958-.895 6.13c-.039.275-.039.477 0 .612a.696.696 0 0 0 .28.352l-.016.107-1.499-.156 1.039-7.125c.045-.306.045-.529 0-.671a.467.467 0 0 0-.282-.303l.015-.106 1.434.204.003-.002Zm1.648.116c.505.073.926.267 1.264.58.337.314.575.723.716 1.22.142.5.165 1.065.074 1.697a3.68 3.68 0 0 1-.552 1.513c-.286.43-.63.753-1.036.97a2.062 2.062 0 0 1-1.296.229 2.344 2.344 0 0 1-1.132-.48c-.33-.258-.594-.608-.796-1.051l.824-2.42c-.162 1.117-.14 1.995.063 2.63.204.634.591.994 1.16 1.075.418.06.779-.078 1.08-.415.303-.336.5-.816.591-1.44a4.74 4.74 0 0 0 .018-1.29 4.012 4.012 0 0 0-.3-1.126 2.509 2.509 0 0 0-.558-.821 1.358 1.358 0 0 0-.748-.376 1.206 1.206 0 0 0-.612.062 1.406 1.406 0 0 0-.526.373l-.063-.057a1.76 1.76 0 0 1 .775-.715c.332-.16.685-.212 1.056-.16l-.002.002Zm-6.07-1.455c.513.173.92.453 1.222.834.3.38.481.836.539 1.36.057.525-.019 1.09-.228 1.693a3.758 3.758 0 0 1-.827 1.397c-.355.37-.756.621-1.195.75-.442.13-.887.117-1.34-.036-.596-.202-1.012-.546-1.248-1.03-.235-.485-.248-1.031-.04-1.635l.09-.256 3.676 1.25-.066.192-1.564-.481c-.419-.127-.735-.164-.947-.11-.212.055-.361.203-.448.449-.11.313-.1.598.032.855.13.256.353.44.67.546.287.099.567.099.845.005a1.72 1.72 0 0 0 .75-.525c.225-.257.409-.594.55-1.003a3.683 3.683 0 0 0 .212-1.525 2.506 2.506 0 0 0-.437-1.257 1.98 1.98 0 0 0-1.007-.743c-.521-.176-1-.148-1.434.088l-.045-.052c.359-.396.72-.658 1.089-.782s.75-.12 1.15.016Zm-9.571 4.628a.687.687 0 0 1-.324-.43.635.635 0 0 1 .068-.5.655.655 0 0 1 .424-.3.695.695 0 0 1 .534.085c.17.104.277.246.324.43a.643.643 0 0 1-.492.8.685.685 0 0 1-.534-.087v.002Zm1.963-1.507-1.395-.648 2.768-4.501c.113-.182.165-.335.162-.456a.467.467 0 0 0-.164-.334l.054-.091L23.04 60.6l-.055.09a.474.474 0 0 0-.382.006c-.108.054-.22.173-.33.355l-2.135 3.468c-.15.243-.233.435-.251.577a.657.657 0 0 0 .115.438l-.055.09h.003Zm-2.08-8.701-.071.083c-.136-.072-.262-.09-.377-.051-.115.036-.243.137-.382.3l-1.972 2.318c-.38.446-.581.85-.6 1.21-.02.36.14.681.474.96.178.148.395.247.657.293.261.047.533.04.816-.023v.06c-.4.184-.806.256-1.217.212a1.975 1.975 0 0 1-1.075-.445c-.45-.376-.685-.806-.704-1.285-.018-.48.183-.969.605-1.464l2.166-2.546c.139-.163.217-.303.235-.422.019-.119-.02-.238-.115-.36l.07-.08 1.492 1.243-.002-.002Zm2.81 2.342-.071.08c-.136-.072-.262-.09-.377-.052-.115.04-.243.138-.382.3l-2.65 3.117c-.18.212-.29.386-.327.523a.66.66 0 0 0 .047.45l-.07.084-1.257-.785.71-.925L19 58.89c.139-.163.217-.303.235-.422.019-.12-.02-.239-.115-.36l.07-.083 1.492 1.243h-.002Zm-6.275-5.981-.086.063a.479.479 0 0 0-.35-.132c-.123.007-.272.072-.445.199l-5.178 3.782c-.225.163-.371.308-.437.43a.657.657 0 0 0-.055.445l-.086.062-.958-1.184 6.054-4.423c.173-.127.283-.25.325-.363a.47.47 0 0 0-.024-.373l.087-.062 1.156 1.554-.002.002Zm-9.178 1.2a.671.671 0 0 1-.083-.531.63.63 0 0 1 .295-.41.66.66 0 0 1 .516-.07c.186.047.33.153.431.324a.67.67 0 0 1 .084.531.654.654 0 0 1-.81.482.676.676 0 0 1-.433-.324v-.002Zm2.447-.43-.932-1.215 4.563-2.712c.186-.109.304-.22.359-.329a.47.47 0 0 0 .01-.373l.092-.054 1.004 1.655-.091.054a.481.481 0 0 0-.34-.17c-.12-.003-.275.051-.46.163l-3.517 2.09c-.246.147-.411.28-.492.396a.665.665 0 0 0-.102.44l-.092.055h-.002Zm2.242-8.664-.1.039a.474.474 0 0 0-.31-.22c-.121-.021-.28.01-.48.09L6.19 46.443c-.547.22-.913.485-1.099.796-.185.31-.196.665-.031 1.067.086.212.235.399.445.562.21.163.452.282.735.354l-.031.052a2.247 2.247 0 0 1-1.173-.37 1.935 1.935 0 0 1-.74-.891c-.222-.541-.23-1.028-.02-1.46.208-.433.617-.773 1.22-1.019l3.114-1.253c.2-.08.335-.169.409-.267a.465.465 0 0 0 .065-.373l.1-.042.735 1.788-.003.005Zm1.384 3.364-.1.04a.474.474 0 0 0-.31-.221c-.121-.02-.28.01-.48.09l-3.812 1.537c-.259.103-.437.207-.536.313a.655.655 0 0 0-.17.42l-.1.041-.742-1.274 1.062-.492 3.877-1.565c.199-.08.335-.168.408-.267.074-.098.095-.22.066-.373l.1-.041.734 1.787.003.005ZM8.725 40.68c.103.495.058.956-.13 1.386-.189.43-.505.795-.945 1.103-.442.306-.986.526-1.635.656a3.665 3.665 0 0 1-1.575 0 2.822 2.822 0 0 1-1.232-.599 1.842 1.842 0 0 1-.63-1.056 2.667 2.667 0 0 1-.064-.568c.003-.163.01-.303.024-.422a.984.984 0 0 0-.003-.282.36.36 0 0 0-.07-.166.307.307 0 0 0-.142-.093l-.018-.093 1.98-.64.024.116c-.562.386-.965.76-1.206 1.112-.24.354-.324.702-.256 1.04.055.265.185.48.395.654a1.7 1.7 0 0 0 .803.339 2.91 2.91 0 0 0 1.073-.034 4.125 4.125 0 0 0 1.156-.407c.34-.186.628-.404.86-.655.234-.251.401-.523.506-.813.104-.29.123-.59.06-.899a1.66 1.66 0 0 0-.257-.624 1.716 1.716 0 0 0-.504-.466l.023-.065c.52.114.924.293 1.214.536.29.244.474.56.555.945l-.006-.005Zm-.505-4.766a2.537 2.537 0 0 1-.374 1.435c-.261.42-.628.752-1.101.995-.474.243-1.015.373-1.63.386-.623.013-1.172-.09-1.651-.313a2.743 2.743 0 0 1-1.135-.946 2.556 2.556 0 0 1-.432-1.417c-.013-.544.11-1.025.369-1.442.256-.417.62-.746 1.09-.99.47-.243 1.016-.373 1.636-.386.615-.013 1.162.091 1.646.314s.866.536 1.146.94c.28.404.426.878.44 1.424H8.22Zm-6.075.138c.008.316.129.588.367.816.235.228.57.399 1.004.51.435.114.958.163 1.57.148.605-.013 1.125-.086 1.557-.218.432-.132.761-.316.991-.554.23-.239.34-.516.335-.832a1.114 1.114 0 0 0-.371-.82c-.24-.223-.578-.392-1.018-.506-.437-.111-.96-.163-1.565-.147-.614.013-1.135.085-1.561.217-.427.132-.754.316-.982.55a1.123 1.123 0 0 0-.327.836Zm6.047-3.393-.108-.013a.478.478 0 0 0-.162-.337c-.094-.078-.248-.132-.463-.158l-6.386-.774c-.278-.034-.482-.029-.618.015a.672.672 0 0 0-.348.285L0 31.664l.126-1.513 7.467.904c.214.026.376.013.486-.041a.49.49 0 0 0 .241-.287l.107.012-.238 1.917.003.003Zm.246-2.665-.105-.029a.467.467 0 0 0-.107-.363c-.081-.088-.228-.163-.435-.22l-3.96-1.106c-.27-.075-.474-.1-.618-.08a.672.672 0 0 0-.395.228l-.105-.029.204-1.455 1.144.259 4.029 1.124c.206.057.369.07.486.036a.462.462 0 0 0 .283-.254l.105.029-.529 1.857.003.003Zm.997-3.5-.105-.028a.467.467 0 0 0-.107-.363c-.082-.088-.228-.163-.435-.22l-2.948-.824c-.568-.158-1.02-.173-1.36-.041-.341.132-.569.407-.689.824a1.37 1.37 0 0 0 0 .714c.063.257.183.498.359.728l-.055.021a2.225 2.225 0 0 1-.696-1.005 1.888 1.888 0 0 1-.032-1.153c.16-.562.458-.95.892-1.165.435-.215.966-.236 1.596-.06l3.234.904c.207.057.37.07.487.037a.462.462 0 0 0 .282-.254l.105.028-.528 1.857ZM8.344 23.09c.719.058 1.316-.004 1.79-.18a1.826 1.826 0 0 0 1.033-.912c.146-.29.178-.56.094-.808-.084-.249-.27-.443-.555-.586a1.066 1.066 0 0 0-.73-.103 1.98 1.98 0 0 0-.698.323c-.228.161-.46.337-.702.529-.238.192-.481.36-.73.505-.248.148-.507.24-.777.285-.272.044-.557-.01-.855-.158a1.59 1.59 0 0 1-.66-.578 1.54 1.54 0 0 1-.238-.813 1.96 1.96 0 0 1 .233-.925c.092-.184.189-.334.285-.448.097-.114.186-.212.267-.292a.912.912 0 0 0 .183-.246c.082-.164.09-.29.021-.386l.042-.086 1.792.635-.052.106c-.612-.039-1.112.01-1.496.147-.385.138-.66.368-.825.692-.13.262-.164.508-.104.736.063.23.22.406.468.528a.778.778 0 0 0 .625.044c.21-.073.427-.192.647-.355.22-.163.45-.342.685-.536.236-.192.482-.36.74-.5.26-.142.534-.228.827-.259.293-.03.607.034.942.2.492.243.811.59.953 1.038.143.45.088.925-.165 1.427-.118.233-.238.43-.359.59-.12.162-.227.301-.324.418-.094.116-.165.22-.212.313-.089.177-.11.322-.058.436l-.041.085-2.104-.761.052-.107.006.003Zm-1.492-7.837c-.222-.166-.403-.264-.539-.295a.691.691 0 0 0-.447.072l-.087-.064.877-1.244 6.033 4.53c.16.12.296.182.414.184a.517.517 0 0 0 .345-.134l.086.064-1.177 1.539-.086-.065a.507.507 0 0 0 .039-.365c-.037-.111-.134-.225-.29-.344l-5.165-3.878h-.003Zm7.724 1.756-.087-.064a.471.471 0 0 0 .034-.376c-.044-.111-.152-.233-.324-.363l-2.441-1.83c-.471-.353-.887-.532-1.253-.532-.364 0-.68.171-.945.518-.144.19-.233.412-.264.671-.032.259-.01.526.068.803l-.068.01a2.304 2.304 0 0 1-.272-1.194c.02-.406.154-.769.4-1.09.356-.466.774-.718 1.256-.76.481-.04.981.136 1.504.527l2.677 2.01c.172.13.319.2.44.21a.49.49 0 0 0 .358-.133l.086.065-1.172 1.528h.003Zm-3.373-8.446a.69.69 0 0 1 .503-.202.648.648 0 0 1 .659.67.667.667 0 0 1-.22.49.69.69 0 0 1-.502.202.661.661 0 0 1-.48-.2.629.629 0 0 1-.177-.47.667.667 0 0 1 .22-.49h-.003Zm.981 2.258.984-1.173 3.705 3.784c.149.153.285.244.405.27a.5.5 0 0 0 .37-.075l.075.077-1.4 1.345-.076-.076c.087-.127.118-.248.09-.367-.027-.117-.116-.254-.265-.407l-2.854-2.916c-.2-.205-.367-.332-.503-.384a.692.692 0 0 0-.457 0l-.076-.075.002-.002Zm6.154 2.319-.066-.083c.1-.117.144-.236.131-.355-.013-.12-.086-.264-.217-.433L15.66 9.04c-.17-.217-.32-.36-.445-.422a.696.696 0 0 0-.45-.044l-.065-.085 1.038-1.052.955 1.124 2.227 2.844c.175.226.343.36.497.404.157.044.358.013.604-.095l.066.082-1.748 1.342v.003Zm-1.546-4.432-.108-.023c-.19-.464-.277-.878-.259-1.249.019-.368.136-.634.351-.8a.588.588 0 0 1 .366-.14c.118.003.223.062.312.174.078.1.11.202.096.308a.409.409 0 0 1-.17.274.755.755 0 0 1-.246.13.67.67 0 0 0-.227.114.555.555 0 0 0-.223.412c-.015.173.021.44.11.797l-.002.003Zm6.698 1.096c-.474.264-.953.38-1.442.35-.49-.032-.95-.2-1.387-.506-.434-.305-.81-.738-1.127-1.292-.293-.516-.463-1.029-.505-1.539-.045-.51.031-.971.227-1.386.197-.411.503-.735.919-.968.549-.306 1.085-.386 1.609-.239.523.148.944.5 1.26 1.057l.137.239-3.386 1.888-.1-.176 1.406-.837c.374-.228.612-.435.714-.63.102-.191.086-.4-.042-.629-.165-.287-.387-.471-.667-.544-.28-.075-.565-.03-.858.132a1.259 1.259 0 0 0-.565.622c-.113.267-.147.57-.102.907.044.336.175.694.39 1.072.277.49.614.878 1.01 1.17.394.293.808.464 1.24.513.431.05.84-.033 1.23-.25.478-.268.774-.64.886-1.12h.07c.064.529.02.972-.13 1.326a1.71 1.71 0 0 1-.777.842l-.01-.002Zm6.922-5.732-3.137.86-.165-.594 3.137-.86.165.594ZM48.85 23.469l-.006.622.108.657.02.664v.663l.019.663-.086.632.02.634-.06.632-.065.63-.105.627-.123.621-.065.66-.699-.07-.69.037-.688-.008-.691-.02-.69.062-.692-.068-.69.068-.694-.057-.703.064.117-.66.102-.627.074-.63.057-.629.037-.632.063-.632-.076-.634.02-.663-.041-.663.029-.666-.068-.66-.024-.635-.604-.073h-.615l-.615.055h-.612l.02.65.024.663.087.66-.047.666.028.663-.005.635-.044.632-.074.63-.008.636-.065.632-.165.617-.097.614-.646-.008-.651.046-.652-.023-.651-.041-.652.085-.654-.008-.657-.023-.149-.63-.023-.637-.144-.621-.079-.63.024-.637-.065-.632v-.634l-.021-.663.07-.66.019-.664-.014-.666.045-.652-.612-.037-.615.021-.615-.008-.612.024-.008.652-.065.661.02.663-.03.663-.056.663.008.635.086.63.034.631.006.635.07.63.157.616.07.637-.693.03-.69-.01-.688.01-.691-.025-.69-.016-.691-.005-.691-.028-.693.07-.686-.057-.078-.606-.155-.617-.091-.627-.016-.634-.076-.63.005-.634-.07-.632.07-.663-.05-.663.087-.66-.04-.666.069-.648-.61-.05h-.615l-.615.04-.61.018-.072.64-.01.663-.064.663.058.665-.052.663.015.692.045.692.073.688.034.692.055.692.17.676.113.683.151.676.18.669.184.668.178.67.183.669.212.622.173.637.261.606.275.598.225.62.28.595.303.585.32.578.282.593.29.59.33.573.32.6.402.553.338.59.416.541.345.588.38.565.45.513.342.596.435.525.444.516.49.471.413.524.46.437.45-.448.464-.48.402-.502.43-.481.363-.534.398-.505.442-.474.314-.565.408-.502.325-.56.366-.533.332.554.39.516.327.556.408.5.366.529.37.53.402.503.406.503.473.44.445.495.442.474.435-.482.468-.474.44-.518.442-.515.403-.547.429-.528.369-.57.405-.547.393-.554.405-.547.374-.57.285-.621.343-.588.37-.549.337-.567.272-.601.3-.586.302-.587.269-.601.222-.622.265-.604.245-.61.228-.617.18-.632.226-.658.178-.67.22-.661.073-.695.225-.66.117-.684.06-.691.142-.682.068-.689.01-.694.058-.691-.024-.694-.005-.663.016-.664-.04-.663-.028-.663-.055-.632-.605-.01-.614.026-.615-.039-.602.034.016.01ZM33.139 44.915l-.4-.614-.477-.515-.405-.57-.388-.58-.395-.578-.308-.63-.406-.572-.343-.608-.322-.578-.293-.593-.282-.6-.359-.566-.212-.632-.298-.59-.246-.614-.222-.624-.288-.601-.149-.65-.246-.648.693.055.686-.068.683.04.683.01h1.37l.686-.006.686.037.698-.083.194.702.233.655.167.66.267.63.248.635.189.657.272.627.332.599.293.616.28.622.306.595-.277.583-.398.526-.335.565-.36.546-.388.531-.403.518-.345.56-.421.546v.005Zm2.679-11.378.683.072.667-.075h.667l.667.013.68-.008-.246.656-.164.64-.239.616-.24.614-.272.6-.285.596-.236.648-.238-.645-.298-.588-.246-.611-.22-.622-.285-.598-.147-.648-.25-.66h.002Zm9.204 6.734-.419.565-.3.634-.377.588-.395.578-.387.58-.471.523-.377.588-.437.542-.4-.519-.377-.538-.367-.544-.436-.497-.304-.586-.387-.53-.34-.563-.314-.557.256-.616.37-.58.234-.645.335-.599.21-.652.293-.617.256-.632.23-.642.218-.645.201-.666.199-.63.672-.08.686.026.683-.028.682.052.686-.036h.685l.686.072h.685l.691-.054-.194.645-.24.619-.236.619-.18.64-.309.59-.243.616-.275.604-.304.588-.324.578-.262.61-.303.591v.008Z"/>
</svg>
