<svg xmlns="http://www.w3.org/2000/svg" width="48" height="54" fill="none" viewBox="0 0 48 54">
  <path fill="#29382B" fill-rule="evenodd" d="M4 0a4 4 0 0 0-4 4v40a4 4 0 0 0 4 4h13.186l5.424 5.424a1.966 1.966 0 0 0 2.78 0L30.814 48H44a4 4 0 0 0 4-4V4a4 4 0 0 0-4-4H4Z" clip-rule="evenodd"/>
  <path fill="#F0EDEA" d="m33.797 14.076-.004.518.092.55.018.553v.553l.016.554-.074.527.018.53-.052.527-.056.526-.09.523-.106.519-.057.551-.602-.058-.595.03-.593-.006-.595-.018-.595.052-.595-.056-.595.056-.598-.048-.606.055.101-.552.088-.523.063-.525.05-.526.031-.527.055-.527-.066-.53.018-.553-.036-.554.025-.556-.059-.55-.02-.53-.52-.061h-.53l-.53.045h-.528l.018.543.02.553.075.552-.04.555.024.554-.004.53-.039.527-.063.525-.007.532-.056.527-.142.515-.083.512-.557-.006-.562.039-.56-.02-.562-.034-.562.071-.563-.006-.566-.02-.128-.525-.02-.532-.125-.519-.067-.525.02-.532-.056-.527v-.53l-.019-.553.061-.552.016-.553-.011-.556.038-.545-.527-.03-.53.017-.53-.006-.527.02-.007.544-.057.551.018.554-.027.553-.047.554.007.53.074.525.03.527.004.53.06.525.136.515.061.531-.597.026-.596-.008-.592.008-.596-.021-.595-.013-.595-.005-.595-.023-.597.058-.591-.048-.068-.505-.133-.515-.079-.523-.013-.53-.066-.525.005-.53-.06-.527.06-.553-.043-.554.074-.551-.033-.556.058-.54-.525-.041h-.53l-.53.032-.525.015-.063.534-.009.554-.054.553.05.556-.046.553.014.577.038.578.064.575.029.577.047.577.147.564.097.57.13.565.156.558.158.558.153.56.158.557.182.52.15.53.225.507.236.5.194.516.241.497.262.489.275.482.243.495.25.493.285.477.275.502.347.46.29.493.36.452.297.49.327.472.387.428.296.498.374.438.383.43.422.394.356.437.397.365.388-.374.398-.4.348-.42.37-.401.313-.446.342-.421.381-.396.27-.471.353-.42.28-.466.315-.446.286.463.336.43.282.465.351.417.316.441.318.443.347.42.35.419.408.367.383.413.38.396.375-.402.404-.396.378-.432.381-.43.347-.456.37-.441.318-.476.35-.456.338-.463.349-.456.322-.476.246-.518.295-.491.318-.459.291-.473.235-.501.259-.489.26-.49.231-.502.192-.52.228-.503.212-.51.196-.515.155-.527.194-.55.153-.559.19-.551.063-.58.194-.55.101-.572.052-.577.122-.568.058-.576.01-.579.049-.577-.02-.58-.005-.553.014-.553-.034-.554-.025-.553-.047-.528-.521-.008-.53.021-.53-.032-.518.028.014.009Zm-13.537 17.9-.345-.513-.41-.43-.35-.476-.333-.484-.34-.482-.267-.525-.35-.478-.294-.508-.278-.482-.252-.495-.244-.502-.309-.471-.182-.527-.257-.493-.212-.513-.192-.52-.248-.502-.128-.543-.212-.54.597.045.591-.056.588.032.589.009h1.181l.59-.004.591.03.602-.07.167.586.2.547.145.552.23.525.214.53.162.549.235.523.286.5.253.514.24.519.265.497-.24.486-.342.44-.288.47-.312.457-.333.443-.348.432-.297.467-.363.456v.005Zm2.308-9.497.589.06.575-.063h.575l.575.011.586-.006-.212.547-.142.534-.206.514-.207.513-.234.501-.246.497-.203.54-.205-.537-.257-.491-.212-.51-.19-.52-.245-.499-.126-.54-.217-.551h.003Zm7.931 5.62-.36.472-.26.53-.324.49-.34.482-.334.484-.406.437-.325.49-.376.453-.345-.433-.325-.45-.315-.453-.377-.415-.261-.489-.334-.443-.293-.47-.27-.464.22-.515.318-.484.203-.538.289-.5.18-.544.253-.515.22-.527.199-.536.187-.539.174-.555.17-.526.58-.067.59.022.59-.024.588.043.59-.03h.59l.592.06h.59l.595-.045-.166.539-.208.516-.203.517-.155.534-.266.493-.21.514-.237.504-.261.49-.28.483-.225.51-.262.493v.006Z"/>
</svg>
