<svg width="75" height="75" viewBox="0 0 75 75" fill="none" xmlns="http://www.w3.org/2000/svg">
<g clip-path="url(#clip0_236_2)">
<path d="M40.106 2.38L40.093 2.486C39.86 2.536 39.729 2.672 39.697 2.9C39.6838 3.01362 39.6838 3.12838 39.697 3.242C39.711 3.377 39.75 3.576 39.807 3.848L40.457 7.065L40.121 7.392L42.031 3.988L42.17 4.39L39.857 8.36L39.643 8.332L38.748 4.247C38.6628 3.8734 38.5684 3.50196 38.465 3.133C38.4076 2.91538 38.3272 2.70451 38.225 2.504C38.1629 2.38503 38.073 2.28281 37.963 2.206L37.976 2.1L40.098 2.382L40.106 2.38ZM43.426 2.82L43.41 2.926C43.2896 2.93191 43.1741 2.97565 43.08 3.051C42.9977 3.12256 42.9456 3.22259 42.934 3.331C42.921 3.424 42.924 3.545 42.939 3.696C42.955 3.846 42.986 4.043 43.033 4.289L43.706 7.509L43.394 7.754L44.582 5.32C44.737 5.006 44.857 4.732 44.941 4.496C45.024 4.26 45.077 4.079 45.092 3.955C45.122 3.742 45.1 3.571 45.03 3.439C44.959 3.307 44.825 3.19 44.63 3.092L44.642 2.986L46.492 3.232L46.479 3.338C46.3212 3.37573 46.1765 3.45517 46.06 3.568C45.886 3.73941 45.7342 3.93191 45.608 4.141C45.443 4.397 45.249 4.741 45.022 5.174L43.13 8.793L42.916 8.764L41.94 4.214C41.8919 3.93444 41.8261 3.65822 41.743 3.387C41.6924 3.22252 41.6251 3.06369 41.542 2.913C41.4817 2.80585 41.3967 2.71465 41.294 2.647L41.307 2.54L43.418 2.82H43.426ZM47.897 10.293C47.4198 10.131 47.0005 9.83273 46.691 9.435C46.393 9.03649 46.2151 8.56119 46.178 8.065C46.131 7.539 46.218 6.977 46.44 6.376C46.647 5.819 46.93 5.361 47.293 4.996C47.625 4.65025 48.0429 4.399 48.504 4.268C48.949 4.146 49.394 4.167 49.844 4.33C50.435 4.545 50.844 4.897 51.071 5.387C51.299 5.877 51.301 6.423 51.079 7.021L50.985 7.278L47.335 5.957L47.405 5.767L48.96 6.281C49.378 6.415 49.692 6.457 49.907 6.41C50.121 6.363 50.273 6.216 50.362 5.97C50.477 5.659 50.472 5.371 50.346 5.112C50.221 4.853 50.001 4.667 49.687 4.552C49.416 4.44919 49.118 4.44143 48.842 4.53C48.562 4.618 48.308 4.789 48.081 5.042C47.8303 5.3339 47.637 5.67045 47.511 6.034C47.3238 6.51791 47.2407 7.03582 47.267 7.554C47.298 8.042 47.437 8.464 47.677 8.819C47.918 9.176 48.251 9.43 48.669 9.58C49.187 9.767 49.663 9.749 50.106 9.52L50.15 9.575C49.786 9.964 49.417 10.217 49.049 10.337C48.6717 10.4557 48.2651 10.4416 47.897 10.297V10.293ZM53.68 13.245C53.221 12.929 52.944 12.548 52.847 12.1C52.75 11.652 52.85 11.215 53.153 10.787C53.509 10.282 54.038 9.961 54.742 9.827C55.445 9.692 56.392 9.73 57.58 9.945L57.551 10.111C56.701 10.033 56.023 10.081 55.519 10.243C55.0252 10.4006 54.5973 10.717 54.302 11.143C54.042 11.513 53.925 11.87 53.954 12.217C53.983 12.564 54.153 12.847 54.467 13.061C54.676 13.206 54.93 13.276 55.231 13.271C55.531 13.266 55.817 13.201 56.094 13.071L56.134 13.141C55.686 13.429 55.26 13.582 54.849 13.598C54.4325 13.6112 54.0233 13.4864 53.685 13.243L53.68 13.245ZM56.259 14.882C55.966 14.68 55.799 14.455 55.762 14.214C55.725 13.97 55.793 13.641 55.972 13.224L57.177 10.52C57.379 10.083 57.512 9.73 57.58 9.464C57.646 9.197 57.648 8.979 57.588 8.811C57.528 8.643 57.397 8.492 57.201 8.355C56.978 8.202 56.767 8.138 56.565 8.161C56.364 8.184 56.162 8.306 55.961 8.523C55.749 8.754 55.55 8.803 55.361 8.671C55.3161 8.64331 55.2777 8.6063 55.2484 8.56248C55.2191 8.51866 55.1995 8.46904 55.191 8.417C55.1844 8.36246 55.1888 8.30716 55.2037 8.2543C55.2186 8.20143 55.2439 8.15205 55.278 8.109C55.3422 8.01883 55.4236 7.94222 55.5174 7.88353C55.6113 7.82485 55.7158 7.78525 55.825 7.767C56.0923 7.72242 56.3663 7.74126 56.625 7.822C56.921 7.904 57.219 8.052 57.52 8.259C58.07 8.64 58.391 9.049 58.485 9.487C58.58 9.927 58.465 10.484 58.145 11.157L56.819 14.012C56.699 14.266 56.628 14.483 56.609 14.662C56.591 14.841 56.62 14.972 56.699 15.056L56.636 15.144L56.264 14.887L56.259 14.882ZM56.678 15.32L56.751 15.242C56.881 15.322 57.007 15.348 57.125 15.317C57.243 15.287 57.376 15.196 57.525 15.04L60.375 12.085C60.568 11.885 60.686 11.72 60.73 11.588C60.774 11.4405 60.7659 11.2823 60.707 11.14L60.78 11.062L61.986 11.922L61.006 13.025L58.496 15.628C58.297 15.833 58.187 16.017 58.166 16.178C58.146 16.338 58.208 16.53 58.355 16.755L58.282 16.833L56.68 15.32H56.678ZM60.872 13.144L60.877 13.035C61.311 12.779 61.714 12.634 62.086 12.598C62.457 12.561 62.74 12.637 62.939 12.821C63.054 12.929 63.119 13.043 63.132 13.16C63.1376 13.221 63.129 13.2825 63.1068 13.3396C63.0846 13.3967 63.0494 13.4478 63.004 13.489C62.967 13.5307 62.922 13.5646 62.8717 13.5887C62.8214 13.6127 62.7667 13.6264 62.711 13.629C62.6554 13.6288 62.6003 13.6174 62.5492 13.5956C62.498 13.5738 62.4517 13.542 62.413 13.502C62.3432 13.4399 62.287 13.364 62.248 13.279C62.2114 13.2018 62.1605 13.1323 62.098 13.074C62.0391 13.0182 61.9691 12.9753 61.8927 12.9481C61.8162 12.9209 61.7349 12.91 61.654 12.916C61.479 12.926 61.22 13.002 60.872 13.144ZM60.78 19.868C60.446 19.446 60.257 18.993 60.215 18.508C60.173 18.024 60.273 17.548 60.514 17.076C60.754 16.605 61.128 16.172 61.639 15.778C62.109 15.413 62.596 15.172 63.101 15.053C63.603 14.934 64.077 14.939 64.517 15.069C64.957 15.199 65.325 15.449 65.621 15.823C66.008 16.315 66.168 16.827 66.1 17.361C66.029 17.895 65.741 18.358 65.234 18.751L65.016 18.921L62.622 15.887L62.782 15.763L63.829 17.011C64.111 17.343 64.357 17.545 64.564 17.615C64.77 17.685 64.977 17.641 65.186 17.48C65.451 17.276 65.597 17.032 65.631 16.745C65.663 16.46 65.576 16.185 65.37 15.923C65.1946 15.694 64.9462 15.5317 64.666 15.463C64.3613 15.3928 64.0433 15.4052 63.745 15.499C63.415 15.595 63.078 15.776 62.732 16.043C62.3148 16.3546 61.9682 16.751 61.715 17.206C61.482 17.636 61.375 18.066 61.387 18.496C61.403 18.926 61.547 19.314 61.822 19.661C62.159 20.091 62.578 20.324 63.072 20.363L63.08 20.43C62.562 20.57 62.115 20.593 61.738 20.5C61.3564 20.4031 61.019 20.1796 60.781 19.866L60.78 19.868ZM69.52 22.42L69.42 22.458C69.3559 22.3758 69.266 22.3176 69.1648 22.2927C69.0635 22.2679 68.9569 22.2778 68.862 22.321C68.774 22.357 68.674 22.411 68.564 22.49C68.3986 22.6135 68.2391 22.7446 68.086 22.883L65.574 25.023L65.124 24.896L69.056 24.87L68.771 25.186L64.143 25.142L64.061 24.945L67.217 22.165C67.57 21.847 67.85 21.583 68.057 21.373C68.263 21.163 68.41 20.993 68.491 20.858C68.5658 20.7479 68.6116 20.6206 68.624 20.488L68.724 20.448L69.519 22.417L69.52 22.42ZM70.762 25.497L70.662 25.536C70.5976 25.4349 70.5037 25.356 70.393 25.31C70.2899 25.2731 70.1766 25.2767 70.076 25.32C69.963 25.3689 69.8559 25.4307 69.757 25.504C69.5947 25.6224 69.4369 25.7468 69.284 25.877L66.782 28.04L66.414 27.892L69.14 27.719C69.493 27.699 69.794 27.667 70.043 27.623C70.291 27.579 70.474 27.535 70.594 27.488C70.794 27.408 70.934 27.308 71.018 27.18C71.1 27.053 71.136 26.882 71.126 26.665L71.226 26.625L71.918 28.341L71.819 28.379C71.7076 28.2618 71.5667 28.1768 71.411 28.133C71.1738 28.067 70.9292 28.0307 70.683 28.025C70.2838 28.0106 69.8842 28.0106 69.485 28.025L65.372 28.172L65.292 27.975L68.815 24.898C69.093 24.67 69.302 24.478 69.445 24.323C69.59 24.168 69.697 24.033 69.765 23.917C69.8303 23.813 69.8691 23.6945 69.878 23.572L69.978 23.533L70.768 25.492L70.762 25.497ZM71.9 29.545L72.363 30.998L67.143 32.026C66.931 32.068 66.782 32.132 66.693 32.218C66.648 32.2637 66.6125 32.318 66.5886 32.3775C66.5648 32.4371 66.553 32.5008 66.554 32.565L66.45 32.585L66.07 30.692L66.175 30.672C66.235 30.812 66.325 30.905 66.437 30.946C66.552 30.988 66.714 30.988 66.923 30.946L70.947 30.154C71.23 30.099 71.429 30.029 71.547 29.946C71.671 29.8523 71.7579 29.7177 71.792 29.566L71.897 29.545H71.9ZM74.348 29.957C74.3687 30.0469 74.3703 30.1402 74.3528 30.2308C74.3352 30.3214 74.2988 30.4073 74.246 30.483C74.1995 30.5567 74.1384 30.6202 74.0665 30.6695C73.9947 30.7189 73.9135 30.753 73.828 30.77C73.648 30.806 73.478 30.77 73.32 30.664C73.2423 30.6137 73.1758 30.548 73.1245 30.4709C73.0732 30.3939 73.0384 30.3071 73.022 30.216C73.0014 30.1261 72.9998 30.0328 73.0174 29.9422C73.035 29.8516 73.0713 29.7657 73.124 29.69C73.1721 29.6151 73.2349 29.5507 73.3087 29.5009C73.3824 29.451 73.4656 29.4167 73.553 29.4C73.6389 29.3829 73.7274 29.3837 73.8129 29.4025C73.8985 29.4212 73.9792 29.4575 74.05 29.509C74.1279 29.559 74.1947 29.6247 74.2459 29.7018C74.2972 29.7789 74.332 29.8658 74.348 29.957ZM66.573 33.4L66.681 33.389C66.6986 33.4511 66.7285 33.509 66.7689 33.5593C66.8092 33.6096 66.8592 33.6513 66.916 33.682C67.026 33.739 67.188 33.757 67.403 33.733L73.805 33.088C74.082 33.06 74.281 33.011 74.404 32.938C74.5336 32.8541 74.6312 32.7291 74.681 32.583L74.789 32.573L75.003 34.075L67.518 34.829C67.303 34.849 67.148 34.899 67.052 34.977C67.0028 35.0178 66.9624 35.0682 66.9332 35.1251C66.9039 35.182 66.8865 35.2442 66.882 35.308L66.775 35.318L66.578 33.399L66.573 33.4ZM66.732 39.988L67.702 39.975L73.951 40.265C74.228 40.279 74.435 40.258 74.563 40.206C74.7041 40.1428 74.8194 40.0335 74.89 39.896L74.997 39.9L74.987 41.392L67.721 41.052C67.41 41.037 67.185 41.058 67.049 41.115C66.9819 41.1412 66.9219 41.1827 66.8737 41.2362C66.8254 41.2897 66.7903 41.3536 66.771 41.423L66.664 41.418L66.732 39.986V39.988ZM66.69 38.351C66.714 37.846 66.868 37.414 67.153 37.051C67.438 36.689 67.826 36.414 68.313 36.227C68.799 36.041 69.367 35.963 70.013 35.992C70.602 36.02 71.127 36.152 71.588 36.391C72.048 36.629 72.407 36.94 72.663 37.318C72.92 37.698 73.037 38.116 73.016 38.574C72.996 38.999 72.873 39.388 72.645 39.737C72.417 40.087 72.09 40.382 71.664 40.623L69.152 40.043C70.29 40.097 71.169 39.991 71.79 39.727C72.41 39.463 72.731 39.048 72.76 38.481C72.781 38.064 72.606 37.722 72.24 37.455C71.873 37.189 71.37 37.041 70.735 37.012C70.2995 36.9891 69.8629 37.0251 69.437 37.119C69.027 37.209 68.657 37.344 68.333 37.523C68.009 37.701 67.753 37.911 67.561 38.149C67.3779 38.3674 67.2705 38.6394 67.255 38.924C67.245 39.144 67.285 39.344 67.375 39.522C67.467 39.701 67.609 39.862 67.802 40.004L67.75 40.074C67.415 39.924 67.15 39.694 66.957 39.38C66.7657 39.0733 66.6745 38.7148 66.696 38.354L66.69 38.351ZM72.274 43.304L72.138 44.821L66.918 43.785C66.706 43.744 66.544 43.744 66.428 43.79C66.3094 43.841 66.2158 43.937 66.168 44.057L66.062 44.037L66.447 42.143L66.552 42.163C66.552 42.317 66.599 42.436 66.688 42.516C66.777 42.599 66.926 42.661 67.138 42.703L71.159 43.5C71.442 43.557 71.651 43.568 71.792 43.537C71.9432 43.4967 72.0762 43.4061 72.169 43.28L72.274 43.301V43.304ZM74.374 44.614C74.3576 44.7051 74.3228 44.7919 74.2715 44.8689C74.2202 44.946 74.1537 45.0117 74.076 45.062C73.916 45.168 73.752 45.202 73.579 45.168C73.4916 45.1512 73.4085 45.1169 73.3347 45.067C73.261 45.0172 73.1981 44.9529 73.15 44.878C73.098 44.8015 73.0621 44.7153 73.0446 44.6245C73.027 44.5337 73.0282 44.4403 73.048 44.35C73.0644 44.2589 73.0992 44.1721 73.1505 44.0951C73.2018 44.018 73.2683 43.9523 73.346 43.902C73.4185 43.8509 73.5005 43.8151 73.5872 43.7967C73.6739 43.7783 73.7634 43.7777 73.8504 43.7949C73.9373 43.8121 74.0199 43.8468 74.093 43.8968C74.1662 43.9468 74.2284 44.0112 74.276 44.086C74.3282 44.162 74.3639 44.248 74.3809 44.3386C74.398 44.4291 74.396 44.5223 74.375 44.612L74.374 44.614ZM64.72 48.214L64.823 48.251C64.809 48.3147 64.8088 48.3806 64.8222 48.4444C64.8357 48.5082 64.8625 48.5684 64.901 48.621C64.977 48.717 65.116 48.8 65.317 48.875L68.19 49.921C68.745 50.123 69.195 50.173 69.543 50.066C69.89 49.963 70.142 49.706 70.293 49.3C70.374 49.085 70.39 48.846 70.348 48.587C70.3002 48.3182 70.1981 48.062 70.048 47.834L70.105 47.818C70.416 48.124 70.62 48.476 70.72 48.875C70.82 49.271 70.798 49.657 70.662 50.028C70.458 50.577 70.132 50.939 69.682 51.121C69.232 51.301 68.7 51.281 68.085 51.058L64.93 49.908C64.728 49.836 64.566 49.81 64.448 49.833C64.3845 49.8487 64.3248 49.8772 64.2727 49.9167C64.2206 49.9563 64.1772 50.006 64.145 50.063L64.043 50.028L64.715 48.217L64.72 48.214ZM65.99 44.804L66.092 44.839C66.078 44.9027 66.0777 44.9686 66.0911 45.0324C66.1046 45.0962 66.1315 45.1564 66.17 45.209C66.246 45.306 66.385 45.389 66.586 45.464L70.448 46.87C70.709 46.966 70.914 47.007 71.058 46.997C71.2135 46.9812 71.3585 46.9115 71.468 46.8L71.57 46.836L71.254 48.274L70.134 47.93L66.204 46.497C66.003 46.425 65.84 46.399 65.723 46.422C65.605 46.445 65.503 46.523 65.419 46.652L65.317 46.616L65.99 44.806V44.804ZM60.651 51.452C61.086 50.752 61.531 50.266 61.991 49.994C62.449 49.722 62.86 49.696 63.221 49.914C63.498 50.082 63.676 50.344 63.751 50.696C63.828 51.048 63.794 51.439 63.65 51.869L63.545 51.903C63.5658 51.6766 63.5154 51.4494 63.401 51.253C63.2879 51.043 63.1208 50.867 62.917 50.743C62.585 50.54 62.232 50.517 61.857 50.675C61.484 50.833 61.151 51.146 60.858 51.618C60.563 52.094 60.416 52.535 60.421 52.936C60.426 53.338 60.581 53.63 60.887 53.816C61.099 53.944 61.308 53.977 61.515 53.913C61.722 53.848 61.936 53.677 62.158 53.394L63.223 52.084C63.527 51.714 63.815 51.475 64.087 51.372C64.2157 51.3204 64.3549 51.3007 64.4928 51.3146C64.6308 51.3285 64.7633 51.3757 64.879 51.452C65.097 51.584 65.241 51.796 65.306 52.087C65.374 52.377 65.343 52.7 65.214 53.06L65.112 53.068C65.1478 52.9038 65.1399 52.7331 65.089 52.573C65.0499 52.4505 64.9693 52.3454 64.861 52.276C64.802 52.2376 64.7333 52.2167 64.6629 52.2157C64.5925 52.2146 64.5232 52.2334 64.463 52.27C64.328 52.346 64.15 52.524 63.927 52.807L62.873 54.167C62.543 54.578 62.211 54.832 61.879 54.931C61.546 55.029 61.206 54.974 60.859 54.762C60.5444 54.577 60.3037 54.2886 60.178 53.946C60.05 53.599 60.026 53.213 60.105 52.783C60.183 52.353 60.366 51.91 60.649 51.455L60.651 51.452ZM67.815 55.721L67.389 56.407C67.279 56.583 67.229 56.725 67.234 56.834C67.2493 56.9691 67.3 57.0978 67.381 57.207C67.4383 57.2977 67.4789 57.398 67.501 57.503C67.5109 57.5876 67.4896 57.673 67.441 57.743C67.3862 57.838 67.2971 57.9085 67.192 57.94C67.1405 57.9542 67.0865 57.9571 67.0337 57.9487C66.9809 57.9402 66.9305 57.9206 66.886 57.891C66.8083 57.8465 66.7455 57.7801 66.7055 57.7C66.6654 57.6199 66.65 57.5298 66.661 57.441C66.674 57.238 66.776 56.984 66.967 56.674L67.117 56.433L67.085 56.415C66.763 56.692 66.421 56.847 66.06 56.881C65.696 56.915 65.337 56.824 64.984 56.609C64.6725 56.4284 64.4213 56.1598 64.262 55.837C64.1126 55.5191 64.0548 55.1659 64.095 54.817C64.131 54.449 64.265 54.078 64.5 53.7C64.73 53.33 65.002 53.045 65.32 52.843C65.636 52.641 65.968 52.535 66.316 52.524C66.6778 52.5179 67.0335 52.618 67.339 52.812C67.671 53.014 67.912 53.27 68.064 53.578C68.213 53.887 68.268 54.226 68.226 54.594C68.1735 54.9933 68.032 55.3757 67.812 55.713L67.815 55.721ZM67.611 55.596C67.7007 55.4589 67.7527 55.3005 67.7618 55.137C67.7709 54.9734 67.7368 54.8103 67.663 54.664C67.514 54.337 67.213 54.034 66.758 53.76C66.303 53.483 65.892 53.353 65.526 53.371C65.159 53.389 64.887 53.542 64.706 53.832C64.5885 54.0137 64.5412 54.232 64.573 54.446C64.605 54.661 64.704 54.871 64.874 55.081C65.044 55.291 65.277 55.485 65.578 55.669C66.033 55.946 66.442 56.078 66.8 56.062C66.9643 56.0624 67.1258 56.0199 67.2685 55.9387C67.4113 55.8575 67.5304 55.7404 67.614 55.599L67.611 55.596ZM62.42 56.526C61.74 56.288 61.146 56.195 60.644 56.246C60.1672 56.2843 59.7236 56.5053 59.406 56.863C59.189 57.106 59.09 57.358 59.106 57.619C59.121 57.881 59.249 58.117 59.49 58.326C59.7 58.51 59.924 58.603 60.168 58.611C60.4271 58.6168 60.6848 58.5709 60.926 58.476C61.188 58.381 61.46 58.269 61.74 58.145C62.02 58.021 62.3 57.92 62.577 57.842C62.855 57.764 63.129 57.738 63.404 57.767C63.676 57.795 63.938 57.92 64.189 58.137C64.427 58.347 64.589 58.587 64.676 58.862C64.759 59.137 64.767 59.419 64.694 59.709C64.621 59.999 64.466 60.277 64.228 60.543C64.1123 60.6783 63.9807 60.7992 63.836 60.903C63.7271 60.9788 63.6153 61.0505 63.501 61.118C63.4102 61.1685 63.3282 61.2334 63.258 61.31C63.138 61.447 63.095 61.57 63.138 61.678L63.075 61.748L61.507 60.678L61.586 60.59C62.169 60.784 62.664 60.862 63.072 60.83C63.48 60.797 63.804 60.644 64.048 60.373C64.244 60.153 64.341 59.924 64.338 59.689C64.338 59.45 64.234 59.241 64.024 59.057C63.9447 58.9835 63.8509 58.9276 63.7485 58.8928C63.6462 58.858 63.5376 58.8451 63.43 58.855C63.1832 58.8765 62.9412 58.9365 62.713 59.033C62.457 59.137 62.19 59.251 61.913 59.375C61.636 59.502 61.353 59.601 61.068 59.671C60.783 59.741 60.492 59.753 60.202 59.712C59.912 59.671 59.626 59.522 59.344 59.279C58.93 58.919 58.713 58.502 58.692 58.031C58.672 57.56 58.846 57.114 59.223 56.694C59.3756 56.5203 59.5429 56.36 59.723 56.215C59.883 56.091 60.021 55.985 60.144 55.897C60.2476 55.8244 60.3431 55.7409 60.429 55.648C60.56 55.5 60.618 55.366 60.599 55.244L60.662 55.174L62.496 56.446L62.418 56.534L62.42 56.526ZM54.546 64.452L57.215 62.61L57.57 63.115L54.902 64.957L54.546 64.452ZM43.64 65.881L43.672 65.982C43.6137 66.0088 43.5613 66.0469 43.5179 66.0941C43.4745 66.1413 43.4408 66.1967 43.419 66.257C43.384 66.366 43.395 66.511 43.453 66.692L44.386 69.741C44.556 70.292 44.763 70.668 45.006 70.867C45.25 71.067 45.556 71.111 45.922 71C46.174 70.924 46.382 70.787 46.548 70.59C46.7251 70.3648 46.85 70.1032 46.914 69.824L47.003 69.909C46.919 70.396 46.752 70.792 46.506 71.098C46.2562 71.4045 45.9183 71.6268 45.538 71.735C45.028 71.888 44.593 71.852 44.235 71.626C43.876 71.398 43.607 70.986 43.424 70.391L42.388 67.013C42.333 66.832 42.259 66.705 42.17 66.633C42.081 66.56 41.961 66.531 41.807 66.545L41.775 66.443L43.641 65.884L43.64 65.881ZM46.924 64.895L46.956 64.995C46.8975 65.0216 46.8449 65.0597 46.8013 65.1069C46.7577 65.1541 46.7239 65.2096 46.702 65.27C46.668 65.379 46.681 65.524 46.736 65.705L47.67 68.754C47.84 69.314 48.047 69.692 48.285 69.886C48.523 70.083 48.826 70.124 49.193 70.016C49.423 69.946 49.617 69.821 49.779 69.642C49.941 69.461 50.069 69.233 50.169 68.956L50.216 69.028C50.161 69.448 50.012 69.813 49.763 70.116C49.5136 70.423 49.1756 70.6454 48.795 70.753C48.298 70.901 47.871 70.86 47.513 70.623C47.155 70.388 46.885 69.982 46.707 69.399L45.671 66.021C45.616 65.84 45.543 65.713 45.454 65.641C45.365 65.568 45.244 65.539 45.09 65.553L45.059 65.451L46.924 64.892V64.895ZM50.164 63.921L50.194 64.021C50.059 64.097 49.975 64.19 49.944 64.307C49.912 64.423 49.928 64.584 49.991 64.788L51.186 68.686C51.267 68.951 51.356 69.137 51.451 69.243C51.5576 69.3575 51.7009 69.4311 51.856 69.451L51.888 69.551L50.54 70.168L50.142 69.075L48.926 65.11C48.863 64.905 48.787 64.762 48.696 64.685C48.6446 64.6436 48.5852 64.6132 48.5215 64.5958C48.4579 64.5785 48.3913 64.5744 48.326 64.584L48.296 64.483L50.161 63.923L50.163 63.921H50.164ZM36.446 66.503C36.804 66.485 37.074 66.563 37.254 66.731C37.434 66.899 37.584 67.203 37.699 67.641L38.413 70.511C38.523 70.979 38.636 71.339 38.748 71.591C38.861 71.841 38.992 72.015 39.146 72.111C39.298 72.207 39.494 72.248 39.732 72.238C40.002 72.225 40.211 72.147 40.355 72.008C40.499 71.865 40.585 71.648 40.611 71.354C40.637 71.046 40.763 70.886 40.996 70.873C41.049 70.8678 41.1025 70.8738 41.153 70.8907C41.2035 70.9076 41.2498 70.935 41.289 70.971C41.364 71.041 41.404 71.142 41.412 71.266C41.417 71.3765 41.3998 71.4868 41.3615 71.5905C41.3232 71.6943 41.2646 71.7893 41.189 71.87C41.005 72.0679 40.7763 72.2188 40.522 72.31C40.2086 72.4273 39.8784 72.4931 39.544 72.505C38.874 72.535 38.366 72.406 38.021 72.116C37.675 71.823 37.421 71.316 37.257 70.588L36.545 67.528C36.5034 67.3032 36.424 67.0871 36.31 66.889C36.216 66.736 36.11 66.649 35.998 66.63L35.993 66.524L36.448 66.504L36.446 66.503ZM39.499 66.239C40.056 66.213 40.512 66.348 40.865 66.643C41.218 66.938 41.409 67.345 41.432 67.866C41.462 68.479 41.242 69.054 40.768 69.586C40.294 70.119 39.52 70.658 38.445 71.209L38.366 71.059C39.086 70.606 39.596 70.16 39.894 69.723C40.192 69.285 40.328 68.803 40.302 68.275C40.282 67.825 40.151 67.472 39.915 67.215C39.68 66.959 39.371 66.837 38.989 66.855C38.735 66.868 38.489 66.967 38.254 67.151C38.0205 67.3338 37.8294 67.5651 37.694 67.829L37.62 67.799C37.796 67.301 38.042 66.92 38.356 66.661C38.6783 66.3972 39.0796 66.2486 39.496 66.239H39.499ZM31.98 65.944L31.901 66.902L31.006 73.032C30.967 73.307 30.967 73.509 31.006 73.644C31.0578 73.7891 31.1563 73.9129 31.286 73.996L31.271 74.103L29.771 73.947L30.811 66.822C30.855 66.516 30.855 66.293 30.811 66.151C30.7903 66.0821 30.7541 66.0189 30.705 65.9664C30.6559 65.9138 30.5953 65.8733 30.528 65.848L30.543 65.742L31.977 65.946L31.98 65.944ZM33.628 66.06C34.133 66.133 34.554 66.327 34.892 66.64C35.229 66.954 35.467 67.363 35.608 67.86C35.75 68.36 35.773 68.925 35.682 69.557C35.612 70.0959 35.4235 70.6126 35.13 71.07C34.845 71.5 34.5 71.823 34.094 72.04C33.6989 72.2557 33.2441 72.3361 32.799 72.269C32.3853 72.2128 31.9941 72.0471 31.666 71.789C31.336 71.531 31.072 71.181 30.87 70.739L31.695 68.319C31.532 69.435 31.553 70.313 31.757 70.948C31.961 71.582 32.349 71.943 32.917 72.023C33.335 72.083 33.696 71.945 33.997 71.608C34.3 71.272 34.497 70.792 34.588 70.168C34.6528 69.7408 34.6588 69.3068 34.606 68.878C34.5614 68.4901 34.4603 68.1107 34.306 67.752C34.1766 67.4439 33.9869 67.1647 33.748 66.931C33.5445 66.73 33.2827 66.5984 33 66.555C32.7941 66.5225 32.5832 66.5438 32.388 66.617C32.1861 66.6989 32.0061 66.8266 31.862 66.99L31.799 66.933C31.9782 66.6211 32.2487 66.3715 32.574 66.218C32.906 66.058 33.259 66.006 33.631 66.058L33.628 66.06ZM27.558 64.605C28.071 64.778 28.478 65.058 28.78 65.439C29.08 65.819 29.261 66.275 29.318 66.799C29.376 67.324 29.3 67.889 29.091 68.493C28.9201 69.0126 28.6379 69.4887 28.264 69.888C27.9388 70.2395 27.5266 70.4989 27.069 70.64C26.626 70.77 26.182 70.756 25.729 70.603C25.132 70.401 24.716 70.057 24.481 69.573C24.245 69.088 24.232 68.542 24.441 67.938L24.531 67.682L28.207 68.932L28.141 69.125L26.577 68.643C26.158 68.516 25.841 68.479 25.629 68.533C25.418 68.588 25.269 68.736 25.182 68.982C25.072 69.295 25.082 69.58 25.214 69.837C25.344 70.093 25.567 70.277 25.884 70.383C26.171 70.482 26.451 70.482 26.728 70.388C27.006 70.295 27.257 70.119 27.479 69.863C27.704 69.606 27.887 69.269 28.029 68.86C28.2063 68.3723 28.2785 67.8526 28.241 67.335C28.2114 66.8843 28.0604 66.4499 27.804 66.078C27.5572 65.7278 27.2035 65.4671 26.796 65.335C26.276 65.159 25.797 65.188 25.363 65.423L25.318 65.371C25.677 64.975 26.038 64.714 26.407 64.589C26.776 64.465 27.157 64.47 27.557 64.605H27.558ZM17.988 69.233C17.9077 69.1869 17.8375 69.125 17.7816 69.0511C17.7258 68.9773 17.6854 68.8929 17.663 68.803C17.6396 68.7194 17.6335 68.6319 17.6452 68.546C17.6569 68.46 17.6861 68.3773 17.731 68.303C17.7775 68.2267 17.8391 68.1608 17.912 68.1092C17.9849 68.0576 18.0676 68.0215 18.155 68.003C18.2452 67.9808 18.3389 67.9768 18.4306 67.9914C18.5223 68.006 18.6102 68.0389 18.689 68.088C18.859 68.192 18.966 68.334 19.013 68.518C19.0363 68.6029 19.0418 68.6917 19.0294 68.7789C19.0169 68.8661 18.9867 68.9497 18.9406 69.0247C18.8944 69.0997 18.8334 69.1645 18.7612 69.2149C18.6891 69.2654 18.6073 69.3005 18.521 69.318C18.4307 69.3405 18.3369 69.3443 18.2451 69.3294C18.1533 69.3144 18.0655 69.2809 17.987 69.231V69.233H17.988ZM19.95 67.726L18.555 67.078L21.323 62.577C21.436 62.395 21.488 62.243 21.486 62.121C21.4829 62.057 21.4666 61.9943 21.4382 61.9368C21.4099 61.8794 21.3699 61.8284 21.321 61.787L21.376 61.696L23.04 62.7L22.985 62.79C22.9244 62.7644 22.8591 62.7518 22.7934 62.7528C22.7276 62.7538 22.6628 62.7685 22.603 62.796C22.495 62.85 22.383 62.969 22.273 63.151L20.138 66.619C19.989 66.862 19.905 67.054 19.887 67.196C19.8722 67.351 19.913 67.5062 20.002 67.634L19.947 67.724H19.95V67.726ZM17.87 59.026L17.799 59.108C17.663 59.036 17.537 59.018 17.422 59.057C17.307 59.093 17.179 59.194 17.04 59.357L15.067 61.675C14.688 62.121 14.487 62.525 14.468 62.885C14.448 63.245 14.607 63.566 14.942 63.845C15.12 63.993 15.337 64.092 15.598 64.139C15.86 64.185 16.132 64.177 16.415 64.115V64.175C16.015 64.359 15.609 64.431 15.198 64.387C14.8031 64.35 14.4285 64.195 14.123 63.942C13.673 63.566 13.437 63.136 13.419 62.657C13.401 62.177 13.602 61.688 14.023 61.193L16.19 58.647C16.328 58.484 16.407 58.344 16.425 58.225C16.444 58.106 16.405 57.987 16.31 57.865L16.38 57.785L17.872 59.028L17.869 59.026H17.87ZM20.68 61.367L20.609 61.447C20.473 61.375 20.347 61.357 20.232 61.396C20.117 61.434 19.989 61.533 19.85 61.696L17.2 64.812C17.02 65.024 16.91 65.198 16.873 65.335C16.8352 65.4859 16.8518 65.6452 16.92 65.785L16.85 65.869L15.593 65.084L16.303 64.159L19 60.99C19.138 60.827 19.217 60.687 19.235 60.568C19.254 60.448 19.215 60.329 19.12 60.208L19.19 60.125L20.682 61.368H20.68V61.367ZM14.406 55.386L14.319 55.449C14.2725 55.4046 14.2176 55.37 14.1574 55.3473C14.0973 55.3247 14.0332 55.3143 13.969 55.317C13.846 55.324 13.697 55.389 13.524 55.516L8.346 59.298C8.121 59.461 7.975 59.606 7.909 59.728C7.83905 59.8653 7.81958 60.0228 7.854 60.173L7.768 60.235L6.811 59.051L12.865 54.628C13.037 54.501 13.147 54.378 13.189 54.265C13.2109 54.2046 13.2201 54.1403 13.2162 54.0761C13.2122 54.012 13.1951 53.9493 13.166 53.892L13.252 53.83L14.408 55.384L14.406 55.386ZM5.228 56.585C5.17829 56.5072 5.14517 56.42 5.13071 56.3288C5.11626 56.2376 5.12078 56.1444 5.144 56.055C5.16234 55.9699 5.19811 55.8896 5.24906 55.819C5.3 55.7484 5.36502 55.6892 5.44 55.645C5.51664 55.5991 5.6018 55.5692 5.69032 55.5572C5.77884 55.5451 5.86889 55.5512 5.955 55.575C6.141 55.622 6.285 55.728 6.387 55.899C6.489 56.069 6.517 56.246 6.471 56.429C6.45113 56.515 6.41405 56.5961 6.362 56.6674C6.30994 56.7387 6.24399 56.7987 6.16812 56.8439C6.09225 56.889 6.00803 56.9183 5.92053 56.93C5.83303 56.9417 5.74407 56.9356 5.659 56.912C5.56877 56.8905 5.48395 56.8506 5.4098 56.7948C5.33565 56.7391 5.27377 56.6687 5.228 56.588V56.585ZM7.674 56.155L6.743 54.941L11.306 52.229C11.491 52.12 11.609 52.009 11.664 51.899C11.6909 51.8409 11.7057 51.778 11.7074 51.714C11.7091 51.6501 11.6977 51.5864 11.674 51.527L11.766 51.472L12.771 53.128L12.679 53.182C12.637 53.1318 12.5851 53.0908 12.5267 53.0614C12.4682 53.032 12.4043 53.0148 12.339 53.011C12.219 53.008 12.064 53.063 11.879 53.174L8.362 55.264C8.116 55.412 7.952 55.544 7.87 55.661C7.78563 55.7912 7.74954 55.9469 7.768 56.101L7.677 56.155H7.674ZM9.915 47.492L9.816 47.531C9.7822 47.4748 9.73711 47.4262 9.68357 47.3884C9.63004 47.3505 9.56924 47.3242 9.505 47.311C9.385 47.29 9.225 47.321 9.025 47.401L6.19 48.543C5.643 48.763 5.277 49.028 5.091 49.339C4.905 49.649 4.895 50.004 5.06 50.406C5.146 50.618 5.295 50.805 5.504 50.968C5.714 51.131 5.957 51.25 6.24 51.323L6.208 51.374C5.79053 51.362 5.38467 51.2339 5.036 51.004C4.7041 50.7896 4.44585 50.4786 4.296 50.113C4.073 49.572 4.066 49.085 4.275 48.653C4.484 48.22 4.892 47.88 5.496 47.634L8.61 46.381C8.809 46.301 8.945 46.212 9.018 46.114C9.05439 46.0599 9.07898 45.9987 9.09018 45.9344C9.10138 45.8702 9.09893 45.8043 9.083 45.741L9.183 45.7L9.918 47.487L9.915 47.492ZM11.3 50.856L11.2 50.896C11.1662 50.8398 11.1211 50.7912 11.0676 50.7534C11.014 50.7155 10.9532 50.6892 10.889 50.676C10.769 50.654 10.609 50.686 10.41 50.766L6.598 52.302C6.338 52.405 6.161 52.509 6.062 52.615C5.95717 52.7303 5.8969 52.8792 5.892 53.035L5.792 53.076L5.049 51.802L6.111 51.31L9.989 49.745C10.188 49.665 10.324 49.577 10.397 49.478C10.47 49.38 10.491 49.258 10.462 49.105L10.562 49.064L11.297 50.851L11.299 50.856H11.3ZM8.725 42.78C8.827 43.275 8.783 43.736 8.595 44.166C8.406 44.596 8.089 44.961 7.65 45.269C7.208 45.575 6.664 45.795 6.015 45.925C5.4962 46.0391 4.9588 46.0391 4.44 45.925C3.98602 45.8297 3.56252 45.624 3.207 45.326C2.88224 45.0566 2.65984 44.6838 2.577 44.27C2.53574 44.0835 2.51462 43.893 2.514 43.702C2.51553 43.561 2.52354 43.4202 2.538 43.28C2.55055 43.1863 2.54954 43.0914 2.535 42.998C2.52611 42.9376 2.50203 42.8805 2.465 42.832C2.42735 42.7883 2.37813 42.756 2.323 42.739L2.305 42.646L4.285 42.006L4.309 42.123C3.746 42.508 3.343 42.881 3.103 43.233C2.862 43.588 2.778 43.936 2.846 44.275C2.901 44.539 3.032 44.754 3.241 44.928C3.451 45.098 3.721 45.212 4.045 45.267C4.369 45.324 4.727 45.311 5.117 45.233C5.52081 45.1558 5.9108 45.0186 6.274 44.826C6.614 44.64 6.902 44.422 7.134 44.171C7.367 43.92 7.534 43.648 7.639 43.358C7.744 43.068 7.762 42.768 7.699 42.459C7.65732 42.2357 7.57019 42.0233 7.443 41.835C7.30783 41.6472 7.13605 41.4887 6.938 41.369L6.962 41.304C7.482 41.418 7.885 41.597 8.176 41.84C8.466 42.084 8.649 42.4 8.73 42.785L8.725 42.78ZM8.22 38.014C8.24103 38.5189 8.1108 39.0186 7.846 39.449C7.584 39.869 7.218 40.201 6.745 40.444C6.271 40.687 5.729 40.817 5.115 40.83C4.492 40.843 3.942 40.74 3.464 40.517C3.00587 40.3116 2.61292 39.9844 2.328 39.571C2.04723 39.1517 1.89691 38.6586 1.896 38.154C1.883 37.61 2.006 37.129 2.266 36.712C2.522 36.295 2.886 35.966 3.356 35.722C3.825 35.479 4.372 35.349 4.992 35.336C5.606 35.323 6.153 35.427 6.637 35.65C7.121 35.873 7.503 36.186 7.783 36.59C8.063 36.994 8.21 37.468 8.223 38.014H8.22ZM2.145 38.152C2.153 38.468 2.273 38.74 2.511 38.968C2.747 39.196 3.081 39.366 3.516 39.478C3.95 39.592 4.474 39.641 5.086 39.626C5.69 39.613 6.211 39.54 6.642 39.408C7.074 39.276 7.404 39.092 7.634 38.854C7.864 38.615 7.974 38.338 7.969 38.022C7.96747 37.867 7.9336 37.7139 7.86954 37.5727C7.80548 37.4315 7.71266 37.3053 7.597 37.202C7.357 36.978 7.019 36.81 6.58 36.696C6.143 36.585 5.62 36.533 5.015 36.549C4.4 36.561 3.88 36.634 3.453 36.766C3.027 36.898 2.7 37.082 2.472 37.316C2.36293 37.4254 2.2776 37.5561 2.22133 37.6999C2.16507 37.8438 2.13908 37.9977 2.145 38.152ZM8.192 34.759L8.084 34.746C8.08103 34.6818 8.06515 34.6189 8.03732 34.561C8.00948 34.5031 7.97026 34.4514 7.922 34.409C7.828 34.331 7.674 34.277 7.459 34.251L1.073 33.477C0.795 33.443 0.591 33.448 0.455 33.492C0.309665 33.5441 0.186755 33.6448 0.107 33.777L0 33.764L0.126 32.251L7.593 33.155C7.807 33.181 7.969 33.168 8.079 33.114C8.13614 33.0842 8.18683 33.0434 8.22818 32.994C8.26954 32.9446 8.30074 32.8875 8.32 32.826L8.427 32.839L8.189 34.756L8.192 34.759ZM8.437 32.094L8.333 32.065C8.34134 32.0005 8.33613 31.935 8.31771 31.8727C8.29928 31.8104 8.26805 31.7526 8.226 31.703C8.144 31.615 7.998 31.539 7.791 31.483L3.831 30.376C3.561 30.301 3.357 30.276 3.213 30.296C3.05878 30.3236 2.91906 30.4043 2.818 30.524L2.713 30.496L2.917 29.04L4.06 29.299L8.09 30.423C8.296 30.48 8.458 30.493 8.576 30.459C8.63849 30.4392 8.69605 30.4063 8.74484 30.3625C8.79364 30.3187 8.83255 30.265 8.859 30.205L8.963 30.234L8.435 32.091L8.437 32.094ZM9.434 28.594L9.33 28.566C9.33835 28.5013 9.33305 28.4356 9.31445 28.3731C9.29585 28.3105 9.26436 28.2526 9.222 28.203C9.142 28.115 8.995 28.04 8.788 27.983L5.839 27.16C5.272 27.002 4.819 26.986 4.479 27.118C4.139 27.25 3.911 27.525 3.791 27.942C3.728 28.162 3.728 28.4 3.791 28.657C3.854 28.913 3.974 29.154 4.149 29.385L4.094 29.405C3.77272 29.1416 3.53162 28.7934 3.398 28.4C3.26786 28.0286 3.25702 27.6258 3.367 27.248C3.527 26.686 3.825 26.298 4.259 26.082C4.693 25.867 5.225 25.846 5.855 26.022L9.089 26.926C9.296 26.983 9.458 26.996 9.576 26.963C9.63831 26.943 9.69567 26.9101 9.74429 26.8663C9.7929 26.8225 9.83166 26.7689 9.858 26.709L9.963 26.737L9.434 28.594ZM8.344 25.191C9.064 25.248 9.66 25.186 10.134 25.01C10.5842 24.8526 10.955 24.5252 11.167 24.098C11.313 23.808 11.345 23.538 11.261 23.29C11.177 23.041 10.991 22.847 10.706 22.705C10.4828 22.5846 10.224 22.5477 9.976 22.601C9.738 22.655 9.506 22.764 9.278 22.925C9.05 23.085 8.818 23.261 8.577 23.453C8.3466 23.6393 8.10259 23.8081 7.847 23.958C7.60833 24.1012 7.34468 24.1979 7.07 24.243C6.798 24.287 6.512 24.233 6.214 24.085C5.94773 23.9627 5.7219 23.7669 5.56301 23.5207C5.40412 23.2745 5.31878 22.988 5.317 22.695C5.31605 22.372 5.39616 22.054 5.55 21.77C5.641 21.586 5.738 21.435 5.835 21.321C5.931 21.208 6.02 21.109 6.102 21.029C6.17645 20.9579 6.23832 20.8747 6.285 20.783C6.365 20.62 6.374 20.493 6.305 20.397L6.348 20.311L8.14 20.946L8.087 21.052C7.475 21.013 6.975 21.062 6.591 21.2C6.206 21.337 5.931 21.567 5.767 21.891C5.636 22.153 5.602 22.399 5.662 22.627C5.725 22.857 5.882 23.033 6.13 23.155C6.22555 23.2055 6.33057 23.2354 6.43836 23.243C6.54615 23.2506 6.65433 23.2356 6.756 23.199C6.98807 23.1141 7.20589 22.9944 7.402 22.844C7.622 22.681 7.852 22.503 8.087 22.308C8.323 22.117 8.569 21.948 8.827 21.808C9.08275 21.6668 9.36438 21.5787 9.655 21.549C9.948 21.519 10.262 21.583 10.596 21.749C11.088 21.992 11.408 22.339 11.549 22.787C11.693 23.238 11.638 23.712 11.384 24.215C11.266 24.448 11.146 24.645 11.025 24.805C10.905 24.965 10.798 25.105 10.701 25.222C10.607 25.339 10.536 25.442 10.489 25.536C10.4 25.712 10.379 25.856 10.432 25.971L10.39 26.056L8.286 25.295L8.339 25.188L8.344 25.191ZM6.852 17.353C6.63 17.187 6.449 17.089 6.313 17.058C6.16014 17.0311 6.00269 17.0565 5.866 17.13L5.779 17.066L6.656 15.822L12.689 20.352C12.849 20.472 12.985 20.534 13.102 20.536C13.2299 20.5357 13.3532 20.4879 13.448 20.402L13.534 20.466L12.357 22.005L12.27 21.94C12.3285 21.8276 12.3427 21.6974 12.31 21.575C12.273 21.464 12.176 21.35 12.02 21.231L6.855 17.353H6.852ZM14.575 19.109L14.489 19.045C14.5203 18.9881 14.5395 18.9253 14.5453 18.8606C14.5512 18.7958 14.5436 18.7306 14.523 18.669C14.479 18.558 14.371 18.436 14.199 18.306L11.758 16.476C11.287 16.123 10.871 15.944 10.504 15.944C10.141 15.944 9.824 16.115 9.56 16.462C9.41292 16.6577 9.32168 16.8896 9.296 17.133C9.264 17.392 9.286 17.659 9.364 17.936L9.296 17.946C9.09929 17.5798 9.0053 17.1672 9.024 16.752C9.044 16.346 9.178 15.983 9.424 15.662C9.78 15.196 10.198 14.944 10.68 14.902C11.161 14.862 11.66 15.038 12.184 15.429L14.861 17.439C15.033 17.569 15.18 17.639 15.301 17.649C15.3665 17.6519 15.432 17.6417 15.4935 17.6188C15.555 17.596 15.6113 17.561 15.659 17.516L15.745 17.581L14.573 19.109H14.575ZM11.204 10.663C11.2697 10.5972 11.3481 10.5454 11.4344 10.5107C11.5206 10.476 11.613 10.4591 11.706 10.461C11.794 10.4593 11.8814 10.4756 11.9629 10.5088C12.0444 10.542 12.1183 10.5914 12.18 10.6541C12.2418 10.7168 12.2901 10.7914 12.3221 10.8734C12.3541 10.9554 12.369 11.043 12.366 11.131C12.3652 11.2235 12.3453 11.3147 12.3074 11.3991C12.2695 11.4834 12.2146 11.559 12.146 11.621C12.0801 11.6868 12.0016 11.7387 11.9151 11.7734C11.8287 11.8081 11.7361 11.825 11.643 11.823C11.5538 11.8237 11.4654 11.8064 11.383 11.772C11.3007 11.7376 11.2262 11.6869 11.164 11.623C11.1037 11.5611 11.0567 11.4874 11.0261 11.4065C10.9955 11.3257 10.9818 11.2394 10.986 11.153C10.9867 11.0605 11.0066 10.9692 11.0445 10.8849C11.0824 10.8005 11.1374 10.725 11.206 10.663H11.204ZM12.184 12.921L13.168 11.748L16.873 15.532C17.023 15.685 17.158 15.776 17.279 15.802C17.4071 15.826 17.5395 15.7991 17.648 15.727L17.724 15.804L16.324 17.149L16.248 17.073C16.334 16.946 16.366 16.825 16.337 16.706C16.311 16.589 16.222 16.452 16.073 16.299L13.218 13.382C13.019 13.178 12.852 13.051 12.716 12.999C12.5678 12.9469 12.4062 12.9469 12.258 12.999L12.182 12.924L12.185 12.921H12.184ZM18.338 15.24L18.272 15.157C18.372 15.04 18.416 14.921 18.403 14.802C18.39 14.682 18.317 14.538 18.186 14.369L15.658 11.139C15.488 10.922 15.339 10.779 15.214 10.717C15.0731 10.6527 14.9147 10.6372 14.764 10.673L14.698 10.588L15.737 9.536L16.692 10.66L18.918 13.504C19.094 13.73 19.261 13.864 19.416 13.908C19.573 13.952 19.774 13.921 20.02 13.813L20.085 13.895L18.338 15.237V15.24ZM16.791 10.808L16.684 10.785C16.494 10.321 16.407 9.907 16.425 9.536C16.443 9.168 16.561 8.902 16.775 8.736C16.8777 8.64864 17.0072 8.59922 17.142 8.596C17.26 8.599 17.364 8.658 17.453 8.77C17.532 8.87 17.563 8.972 17.55 9.078C17.5417 9.13279 17.5223 9.18532 17.4931 9.23241C17.4638 9.27951 17.4254 9.32019 17.38 9.352C17.3068 9.41022 17.2234 9.4543 17.134 9.482C17.0514 9.50508 16.974 9.54378 16.906 9.596C16.8412 9.64436 16.7878 9.70629 16.7494 9.77745C16.7111 9.84862 16.6888 9.9273 16.684 10.008C16.668 10.181 16.705 10.448 16.794 10.805L16.791 10.808ZM23.49 11.904C23.016 12.168 22.537 12.284 22.048 12.254C21.5478 12.2183 21.0676 12.043 20.662 11.748C20.227 11.443 19.851 11.01 19.534 10.456C19.241 9.94 19.071 9.427 19.029 8.917C18.985 8.407 19.06 7.946 19.257 7.532C19.4528 7.11981 19.7742 6.78024 20.175 6.562C20.725 6.257 21.261 6.177 21.784 6.325C22.307 6.472 22.728 6.825 23.045 7.381L23.181 7.62L19.795 9.508L19.696 9.332L21.101 8.495C21.475 8.267 21.713 8.06 21.815 7.865C21.917 7.674 21.902 7.465 21.773 7.236C21.609 6.949 21.386 6.765 21.106 6.692C20.826 6.617 20.541 6.662 20.248 6.824C19.994 6.96051 19.7945 7.18008 19.683 7.446C19.5679 7.73363 19.5327 8.047 19.581 8.353C19.625 8.689 19.756 9.047 19.971 9.425C20.248 9.915 20.586 10.303 20.981 10.595C21.376 10.888 21.789 11.059 22.221 11.109C22.653 11.158 23.061 11.075 23.451 10.857C23.929 10.59 24.225 10.217 24.337 9.738H24.408C24.471 10.267 24.426 10.71 24.278 11.064C24.128 11.419 23.869 11.702 23.5 11.906L23.49 11.904ZM30.412 6.172L27.275 7.032L27.11 6.438L30.247 5.578L30.412 6.172Z" fill="#29382B"/>
</g>
<defs>
<clipPath id="clip0_236_2">
<rect width="75" height="75" fill="white"/>
</clipPath>
</defs>
</svg>
