<svg xmlns="http://www.w3.org/2000/svg" width="75" height="75" fill="none" viewBox="0 0 75 75">
  <path fill="#29382B" d="m40.106 1.78-.013.106c-.233.05-.364.186-.396.414a1.48 1.48 0 0 0 0 .342c.014.135.053.334.11.606l.65 3.217-.336.327 1.91-3.404.139.402-2.313 3.97-.214-.028-.895-4.085a23.39 23.39 0 0 0-.283-1.114 3.157 3.157 0 0 0-.24-.629.834.834 0 0 0-.262-.298l.013-.106 2.122.282.008-.002Zm3.32.44-.016.106a.573.573 0 0 0-.33.125.432.432 0 0 0-.146.28c-.013.093-.01.214.005.365.016.15.047.347.094.593l.673 3.22-.312.245 1.188-2.434c.155-.314.275-.588.359-.824.083-.236.136-.417.151-.541.03-.213.008-.384-.062-.516-.071-.132-.205-.249-.4-.347l.012-.106 1.85.246-.013.106a.905.905 0 0 0-.419.23 2.93 2.93 0 0 0-.452.573c-.165.256-.359.6-.586 1.033L43.13 8.193l-.214-.029-.976-4.55a6.698 6.698 0 0 0-.197-.827 2.509 2.509 0 0 0-.201-.474.772.772 0 0 0-.248-.266l.013-.107 2.111.28h.008Zm4.471 7.473a2.578 2.578 0 0 1-1.206-.858 2.613 2.613 0 0 1-.513-1.37c-.047-.526.04-1.088.262-1.689.207-.557.49-1.015.853-1.38a2.703 2.703 0 0 1 1.211-.728c.445-.122.89-.101 1.34.062.591.215 1 .567 1.227 1.057.228.49.23 1.036.008 1.634l-.094.257-3.65-1.321.07-.19 1.555.514c.418.134.732.176.947.129.214-.047.366-.194.455-.44.115-.311.11-.599-.016-.858-.125-.259-.345-.445-.659-.56a1.28 1.28 0 0 0-.845-.022c-.28.088-.534.259-.761.512a3.061 3.061 0 0 0-.57.992 3.694 3.694 0 0 0-.244 1.52c.031.488.17.91.41 1.265.241.357.574.611.992.761.518.187.994.169 1.437-.06l.044.055c-.364.389-.733.642-1.101.762a1.73 1.73 0 0 1-1.152-.04v-.004Zm5.783 2.952c-.459-.316-.736-.697-.833-1.145-.097-.448.003-.885.306-1.313.356-.505.885-.826 1.589-.96.703-.135 1.65-.097 2.838.118l-.029.166c-.85-.078-1.528-.03-2.032.132a2.35 2.35 0 0 0-1.217.9c-.26.37-.377.727-.348 1.074.029.347.199.63.513.844.209.145.463.215.764.21.3-.005.586-.07.863-.2l.04.07c-.448.288-.874.441-1.285.457a1.89 1.89 0 0 1-1.164-.355l-.006.002Zm2.579 1.637c-.293-.202-.46-.427-.497-.668-.037-.244.031-.573.21-.99l1.205-2.704c.202-.437.335-.79.403-1.056.066-.267.068-.485.008-.653-.06-.168-.191-.319-.387-.456-.223-.153-.434-.217-.636-.194-.201.023-.403.145-.604.362-.212.231-.411.28-.6.148a.368.368 0 0 1-.17-.254.416.416 0 0 1 .087-.308.842.842 0 0 1 .547-.342 1.73 1.73 0 0 1 .8.055c.296.082.594.23.895.437.55.381.871.79.965 1.228.095.44-.02.997-.34 1.67l-1.326 2.855c-.12.254-.191.471-.21.65-.018.179.011.31.09.394l-.063.088-.372-.257-.005-.005Zm.419.438.073-.078c.13.08.256.106.374.075.118-.03.251-.121.4-.277l2.85-2.955c.193-.2.311-.365.355-.497a.67.67 0 0 0-.023-.448l.073-.078 1.206.86-.98 1.103-2.51 2.603c-.199.205-.309.389-.33.55-.02.16.042.352.189.577l-.073.078-1.602-1.513h-.002Zm4.194-2.176.005-.109c.434-.256.837-.401 1.209-.437.371-.037.654.039.853.223.115.108.18.222.193.339a.395.395 0 0 1-.128.329.417.417 0 0 1-.293.14.417.417 0 0 1-.298-.127.675.675 0 0 1-.165-.223.677.677 0 0 0-.15-.205.583.583 0 0 0-.444-.158c-.175.01-.434.086-.782.228Zm-.092 6.724c-.334-.422-.523-.875-.565-1.36-.042-.484.058-.96.299-1.432.24-.471.614-.904 1.125-1.298.47-.365.957-.606 1.462-.725.502-.119.976-.114 1.416.016.44.13.808.38 1.104.754.387.492.547 1.004.479 1.538-.071.534-.359.997-.866 1.39l-.218.17-2.394-3.034.16-.124 1.047 1.248c.282.332.528.534.735.604.206.07.413.026.622-.135.265-.204.411-.448.445-.735.032-.285-.055-.56-.261-.822a1.267 1.267 0 0 0-.704-.46 1.756 1.756 0 0 0-.921.036c-.33.096-.667.277-1.013.544a3.693 3.693 0 0 0-1.017 1.163c-.233.43-.34.86-.328 1.29.016.43.16.818.435 1.165.337.43.756.663 1.25.702l.008.067c-.518.14-.965.163-1.342.07a1.739 1.739 0 0 1-.957-.634v.002Zm8.74 2.552-.1.038a.464.464 0 0 0-.558-.137c-.088.036-.188.09-.298.169a6.6 6.6 0 0 0-.478.393l-2.512 2.14-.45-.127 3.932-.026-.285.316-4.628-.044-.082-.197 3.156-2.78c.353-.318.633-.582.84-.792.206-.21.353-.38.434-.515a.789.789 0 0 0 .133-.37l.1-.04.795 1.969v.003Zm1.242 3.077-.1.039a.586.586 0 0 0-.269-.226.433.433 0 0 0-.317.01 1.61 1.61 0 0 0-.319.184 8.021 8.021 0 0 0-.473.373l-2.502 2.163-.368-.148 2.726-.173c.353-.02.654-.052.903-.096.248-.044.431-.088.551-.135.2-.08.34-.18.424-.308.082-.127.118-.298.108-.515l.1-.04.692 1.716-.099.038a.899.899 0 0 0-.408-.246 2.97 2.97 0 0 0-.728-.108 16.573 16.573 0 0 0-1.198 0l-4.113.147-.08-.197 3.523-3.077c.278-.228.487-.42.63-.575.145-.155.252-.29.32-.406a.752.752 0 0 0 .113-.345l.1-.039.79 1.959-.006.005Zm1.138 4.048.463 1.453-5.22 1.028c-.212.042-.361.106-.45.192a.484.484 0 0 0-.139.347l-.104.02-.38-1.893.105-.02c.06.14.15.233.262.274.115.042.277.042.486 0l4.024-.792c.283-.055.482-.125.6-.208a.657.657 0 0 0 .245-.38l.105-.021h.002Zm2.448.412a.66.66 0 0 1-.102.526.642.642 0 0 1-.418.287c-.18.036-.35 0-.508-.106a.676.676 0 0 1-.298-.448.662.662 0 0 1 .102-.526.656.656 0 0 1 .429-.29.634.634 0 0 1 .497.109.67.67 0 0 1 .298.448ZM66.573 32.8l.108-.011a.483.483 0 0 0 .235.293c.11.057.272.075.487.051l6.402-.645c.277-.028.476-.077.599-.15a.687.687 0 0 0 .277-.355l.108-.01.214 1.502-7.485.754c-.215.02-.37.07-.466.148a.474.474 0 0 0-.17.331l-.107.01-.197-1.919h-.005Zm.159 6.588.97-.013 6.249.29c.277.014.484-.007.612-.059a.68.68 0 0 0 .327-.31l.107.004-.01 1.492-7.266-.34c-.311-.015-.536.006-.672.063a.464.464 0 0 0-.278.308l-.107-.005.068-1.432v.002Zm-.042-1.637c.024-.505.178-.937.463-1.3.285-.362.673-.637 1.16-.824.486-.186 1.054-.264 1.7-.235.589.028 1.114.16 1.575.399.46.238.819.549 1.075.927.257.38.374.798.353 1.256-.02.425-.143.814-.371 1.163-.228.35-.555.645-.981.886l-2.512-.58c1.138.054 2.017-.052 2.638-.316.62-.264.941-.679.97-1.246.021-.417-.154-.759-.52-1.026-.367-.266-.87-.414-1.505-.443a4.843 4.843 0 0 0-1.298.107c-.41.09-.78.225-1.104.404-.324.178-.58.388-.772.626a1.318 1.318 0 0 0-.306.775c-.01.22.03.42.12.598.092.179.234.34.427.482l-.052.07c-.335-.15-.6-.38-.793-.694a1.743 1.743 0 0 1-.261-1.026l-.006-.003Zm5.584 4.953-.136 1.517-5.22-1.036c-.212-.041-.374-.041-.49.005a.487.487 0 0 0-.26.267l-.106-.02.385-1.894.105.02c0 .154.047.273.136.353.089.083.238.145.45.187l4.021.797c.283.057.492.068.633.037a.688.688 0 0 0 .377-.257l.105.021v.003Zm2.1 1.31a.676.676 0 0 1-.298.448c-.16.106-.324.14-.497.106a.657.657 0 0 1-.429-.29.68.68 0 0 1-.102-.528.676.676 0 0 1 .298-.448.655.655 0 0 1 .93.184.663.663 0 0 1 .099.526v.002Zm-9.654 3.6.103.037a.46.46 0 0 0 .078.37c.076.096.215.179.416.254l2.873 1.046c.555.202 1.005.252 1.353.145.347-.103.599-.36.75-.766.081-.215.097-.454.055-.713a2.01 2.01 0 0 0-.3-.753l.057-.016c.311.306.515.658.615 1.057.1.396.078.782-.058 1.153-.204.549-.53.911-.98 1.093-.45.18-.982.16-1.597-.063l-3.155-1.15c-.202-.072-.364-.098-.482-.075a.48.48 0 0 0-.303.23l-.102-.035.672-1.811.006-.003Zm1.27-3.41.102.035a.459.459 0 0 0 .078.37c.076.097.215.18.416.255l3.862 1.406c.261.096.466.137.61.127a.67.67 0 0 0 .41-.197l.102.036-.316 1.438-1.12-.344-3.93-1.433c-.201-.072-.364-.098-.481-.075-.118.023-.22.101-.304.23l-.102-.036.673-1.81v-.003Zm-5.339 6.648c.435-.7.88-1.186 1.34-1.458.458-.272.869-.298 1.23-.08.277.168.455.43.53.782.077.352.043.743-.101 1.173l-.105.034a1.093 1.093 0 0 0-.144-.65 1.342 1.342 0 0 0-.484-.51c-.332-.203-.685-.226-1.06-.068-.373.158-.706.471-.999.943-.295.476-.442.917-.437 1.318.005.402.16.694.466.88.212.128.421.161.628.097.207-.065.421-.236.643-.519l1.065-1.31c.304-.37.592-.609.864-.712a.858.858 0 0 1 .792.08c.218.132.362.344.427.635.068.29.037.613-.092.973l-.102.008a.96.96 0 0 0-.023-.495.552.552 0 0 0-.228-.297.374.374 0 0 0-.398-.006c-.135.076-.313.254-.536.537l-1.054 1.36c-.33.411-.662.665-.994.764-.333.098-.673.043-1.02-.169a1.577 1.577 0 0 1-.681-.816c-.128-.347-.152-.733-.073-1.163.078-.43.261-.873.544-1.328l.002-.003Zm7.164 4.269-.426.686c-.11.176-.16.318-.155.427a.771.771 0 0 0 .147.373.903.903 0 0 1 .12.296.35.35 0 0 1-.06.24.43.43 0 0 1-.249.197.374.374 0 0 1-.306-.049.454.454 0 0 1-.225-.45c.013-.203.115-.457.306-.767l.15-.241-.032-.018c-.322.277-.664.432-1.025.466-.364.034-.723-.057-1.076-.272a1.827 1.827 0 0 1-.722-.772 1.89 1.89 0 0 1-.167-1.02c.036-.368.17-.739.405-1.117.23-.37.502-.655.82-.857.316-.202.648-.308.996-.319a1.85 1.85 0 0 1 1.023.288c.332.202.573.458.725.766.149.309.204.648.162 1.016a2.69 2.69 0 0 1-.414 1.119l.003.008Zm-.204-.125a.934.934 0 0 0 .052-.932c-.149-.327-.45-.63-.905-.904-.455-.277-.866-.407-1.232-.389-.367.018-.639.171-.82.461a.89.89 0 0 0-.133.614c.032.215.131.425.301.635.17.21.403.404.704.588.455.277.864.409 1.222.393a.943.943 0 0 0 .814-.463l-.003-.003Zm-5.191.93c-.68-.238-1.274-.331-1.776-.28a1.854 1.854 0 0 0-1.238.617c-.217.243-.316.495-.3.756.015.262.143.498.384.707.21.184.434.277.678.285a1.95 1.95 0 0 0 .758-.135c.262-.095.534-.207.814-.331.28-.124.56-.225.837-.303.278-.078.552-.104.827-.075.272.028.534.153.785.37.238.21.4.45.487.725.083.275.091.557.018.847-.073.29-.228.568-.466.834a2.216 2.216 0 0 1-.392.36 5.317 5.317 0 0 1-.335.215.967.967 0 0 0-.243.192c-.12.137-.163.26-.12.368l-.063.07-1.568-1.07.079-.088c.583.194 1.078.272 1.486.24.408-.033.732-.186.976-.457.196-.22.293-.449.29-.684 0-.239-.104-.448-.314-.632a.77.77 0 0 0-.594-.202 2.37 2.37 0 0 0-.717.178c-.256.104-.523.218-.8.342-.277.127-.56.226-.845.296-.285.07-.576.082-.866.041-.29-.041-.576-.19-.858-.433-.414-.36-.631-.777-.652-1.248-.02-.471.154-.917.531-1.337a4.02 4.02 0 0 1 .5-.479c.16-.124.298-.23.421-.318a1.78 1.78 0 0 0 .285-.249c.131-.148.189-.282.17-.404l.063-.07 1.834 1.272-.078.088.002-.008Zm-7.874 7.926 2.669-1.842.355.505-2.668 1.842-.356-.505ZM43.64 65.281l.032.101a.484.484 0 0 0-.253.275c-.035.109-.024.254.034.435l.933 3.049c.17.551.377.927.62 1.126.244.2.55.244.916.133.252-.076.46-.213.626-.41a1.94 1.94 0 0 0 .366-.766l.089.085c-.084.487-.251.883-.497 1.189a1.93 1.93 0 0 1-.968.637c-.51.153-.945.117-1.303-.109-.359-.228-.628-.64-.811-1.235l-1.036-3.378c-.055-.181-.129-.308-.218-.38-.089-.073-.209-.102-.363-.088l-.032-.102 1.866-.559v-.003Zm3.284-.986.032.1a.483.483 0 0 0-.254.275c-.034.109-.021.254.034.435l.934 3.049c.17.56.377.938.615 1.132.238.197.541.238.908.13.23-.07.424-.195.586-.374.162-.181.29-.409.39-.686l.047.072c-.055.42-.204.785-.453 1.088a1.92 1.92 0 0 1-.968.637c-.497.148-.924.107-1.282-.13-.358-.235-.628-.641-.806-1.224l-1.036-3.378c-.055-.181-.128-.308-.217-.38-.089-.073-.21-.102-.364-.088l-.031-.102 1.865-.559v.003Zm3.24-.974.03.1c-.135.076-.219.169-.25.286-.032.116-.016.277.047.481l1.195 3.898c.081.265.17.451.265.557a.67.67 0 0 0 .405.208l.032.1-1.348.617-.398-1.093-1.216-3.965c-.063-.205-.139-.348-.23-.425a.479.479 0 0 0-.37-.101l-.03-.101 1.865-.56.002-.002Zm-13.718 2.582c.358-.018.628.06.808.228.18.168.33.472.445.91l.714 2.87c.11.468.223.828.335 1.08.113.25.244.424.398.52.152.096.348.137.586.127.27-.013.479-.091.623-.23.144-.143.23-.36.256-.654.026-.308.152-.468.385-.481a.378.378 0 0 1 .293.098c.075.07.115.171.123.295a.829.829 0 0 1-.223.604 1.69 1.69 0 0 1-.667.44 3.104 3.104 0 0 1-.978.195c-.67.03-1.178-.099-1.523-.389-.346-.293-.6-.8-.764-1.528l-.712-3.06a2.017 2.017 0 0 0-.235-.639c-.094-.153-.2-.24-.312-.259l-.005-.106.455-.02h-.002Zm3.053-.264c.557-.026 1.013.109 1.366.404.353.295.544.702.567 1.223.03.613-.19 1.188-.664 1.72-.474.533-1.248 1.072-2.323 1.623l-.079-.15c.72-.453 1.23-.899 1.528-1.336.298-.438.434-.92.408-1.448-.02-.45-.151-.803-.387-1.06-.235-.256-.544-.378-.926-.36-.254.013-.5.112-.735.296a2.049 2.049 0 0 0-.56.678l-.074-.03c.176-.498.422-.879.736-1.138a1.868 1.868 0 0 1 1.14-.422h.003Zm-7.519-.295-.079.958-.895 6.13c-.039.275-.039.477 0 .612a.696.696 0 0 0 .28.352l-.015.107-1.5-.156 1.04-7.125c.044-.306.044-.529 0-.671a.467.467 0 0 0-.283-.303l.015-.106 1.434.204.003-.002Zm1.648.116c.505.073.926.267 1.264.58.337.314.575.723.716 1.22.142.5.165 1.065.074 1.697a3.68 3.68 0 0 1-.552 1.513c-.285.43-.63.753-1.036.97a2.061 2.061 0 0 1-1.295.229 2.342 2.342 0 0 1-1.133-.48c-.33-.258-.594-.608-.796-1.05l.825-2.42c-.163 1.116-.142 1.994.062 2.629.204.634.592.995 1.16 1.075.418.06.779-.078 1.08-.415.303-.336.5-.816.591-1.44a4.74 4.74 0 0 0 .018-1.29 4.008 4.008 0 0 0-.3-1.126 2.506 2.506 0 0 0-.558-.821 1.358 1.358 0 0 0-.748-.376 1.207 1.207 0 0 0-.612.062 1.406 1.406 0 0 0-.526.373l-.063-.057a1.76 1.76 0 0 1 .775-.715c.332-.16.685-.212 1.057-.16l-.003.002Zm-6.07-1.455c.513.173.92.453 1.222.834.3.38.481.836.538 1.36.058.525-.018 1.09-.227 1.694a3.758 3.758 0 0 1-.827 1.395 2.72 2.72 0 0 1-1.195.752c-.443.13-.887.116-1.34-.037-.597-.202-1.013-.546-1.248-1.03-.236-.485-.249-1.031-.04-1.635l.09-.256 3.676 1.25-.066.193-1.564-.482c-.419-.127-.736-.164-.948-.11-.211.055-.36.203-.447.449-.11.313-.1.598.032.855.13.256.353.44.67.546.287.099.567.099.844.005.278-.093.529-.269.751-.525.225-.257.408-.594.55-1.003a3.684 3.684 0 0 0 .212-1.525 2.504 2.504 0 0 0-.437-1.257 1.98 1.98 0 0 0-1.008-.743c-.52-.176-.999-.147-1.433.088l-.045-.052c.359-.396.72-.657 1.089-.782.369-.124.75-.119 1.15.016Zm-9.57 4.628a.688.688 0 0 1-.325-.43.635.635 0 0 1 .068-.5.655.655 0 0 1 .424-.3.695.695 0 0 1 .534.085c.17.104.277.246.324.43a.643.643 0 0 1-.492.8.686.686 0 0 1-.534-.087v.002Zm1.962-1.507-1.395-.648 2.768-4.501c.113-.182.165-.334.163-.456a.467.467 0 0 0-.165-.334l.055-.091L23.04 62.1l-.055.09a.474.474 0 0 0-.382.006c-.108.054-.22.173-.33.355l-2.135 3.468c-.149.243-.233.435-.251.577a.657.657 0 0 0 .115.438l-.055.09h.003Zm-2.08-8.7-.071.082c-.136-.072-.262-.09-.377-.051-.115.036-.243.137-.382.3l-1.973 2.318c-.379.446-.58.85-.599 1.21-.02.36.139.681.474.96.178.148.395.247.656.294.262.046.534.038.817-.024v.06c-.4.184-.806.256-1.217.212a1.974 1.974 0 0 1-1.075-.445c-.45-.376-.686-.806-.704-1.285-.018-.48.183-.969.604-1.464l2.167-2.546c.138-.163.217-.303.235-.422.019-.119-.02-.238-.115-.36l.07-.08 1.492 1.243-.003-.002Zm2.81 2.341-.071.08c-.136-.072-.262-.09-.377-.051-.115.038-.243.137-.382.3l-2.65 3.116c-.18.212-.29.386-.327.523a.66.66 0 0 0 .047.45l-.07.084-1.257-.785.71-.925L19 60.39c.138-.163.217-.303.235-.422.019-.12-.02-.239-.115-.36l.07-.083 1.492 1.243h-.002Zm-6.274-5.981-.087.063a.478.478 0 0 0-.35-.132c-.123.007-.272.072-.445.199l-5.178 3.782c-.225.163-.371.308-.437.43a.657.657 0 0 0-.055.445l-.086.062-.957-1.184 6.054-4.423c.172-.127.282-.25.324-.363a.47.47 0 0 0-.023-.373l.086-.062 1.156 1.554-.002.002Zm-9.178 1.199a.671.671 0 0 1-.084-.53.63.63 0 0 1 .296-.41.66.66 0 0 1 .515-.07c.186.047.33.153.432.324.102.17.13.347.084.53a.654.654 0 0 1-.812.483.676.676 0 0 1-.431-.324v-.003Zm2.446-.43-.931-1.214 4.563-2.712c.185-.109.303-.22.358-.33a.47.47 0 0 0 .01-.372l.092-.055 1.005 1.656-.092.054a.48.48 0 0 0-.34-.171c-.12-.003-.275.052-.46.163l-3.517 2.09c-.246.148-.41.28-.492.397a.664.664 0 0 0-.102.44l-.091.054h-.003Zm2.241-8.663-.099.039a.474.474 0 0 0-.311-.22c-.12-.021-.28.01-.48.09L6.19 47.943c-.547.22-.913.485-1.099.796-.186.31-.196.665-.031 1.067.086.212.235.399.444.562.21.163.453.282.736.355l-.032.051a2.246 2.246 0 0 1-1.172-.37 1.934 1.934 0 0 1-.74-.891c-.223-.541-.23-1.028-.021-1.46.209-.433.617-.773 1.221-1.019l3.114-1.253c.199-.08.335-.169.408-.267a.465.465 0 0 0 .065-.373l.1-.041.735 1.787-.003.005Zm1.385 3.364-.1.04a.474.474 0 0 0-.311-.22c-.12-.022-.28.01-.479.09l-3.812 1.536c-.26.103-.437.207-.536.313a.655.655 0 0 0-.17.42l-.1.041-.743-1.274 1.062-.492 3.878-1.565c.199-.08.335-.168.408-.267.073-.098.094-.22.065-.373l.1-.041.735 1.787.002.005ZM8.725 42.18c.102.495.058.956-.13 1.386-.189.43-.506.795-.945 1.103-.442.306-.986.526-1.635.656a3.665 3.665 0 0 1-1.575 0 2.822 2.822 0 0 1-1.233-.599 1.842 1.842 0 0 1-.63-1.056 2.67 2.67 0 0 1-.063-.568 4.6 4.6 0 0 1 .024-.422.984.984 0 0 0-.003-.282.36.36 0 0 0-.07-.166.307.307 0 0 0-.142-.093l-.018-.093 1.98-.64.024.117c-.563.385-.966.758-1.206 1.11-.241.355-.325.703-.257 1.042.055.264.186.479.395.653.21.17.48.284.804.339.324.057.682.044 1.072-.034a4.12 4.12 0 0 0 1.157-.407c.34-.186.628-.404.86-.655.233-.251.4-.523.505-.813.105-.29.123-.59.06-.899a1.658 1.658 0 0 0-.256-.624 1.715 1.715 0 0 0-.505-.466l.024-.065c.52.114.923.293 1.214.536.29.244.473.56.554.945l-.005-.005Zm-.505-4.766a2.537 2.537 0 0 1-.374 1.435c-.262.42-.628.752-1.101.995-.474.243-1.016.373-1.63.386-.623.013-1.173-.09-1.651-.313a2.742 2.742 0 0 1-1.136-.946 2.555 2.555 0 0 1-.432-1.417c-.013-.544.11-1.025.37-1.442.256-.417.62-.746 1.09-.99.469-.243 1.016-.373 1.636-.386.614-.013 1.161.091 1.645.314s.866.536 1.146.94c.28.404.427.878.44 1.424H8.22Zm-6.075.138c.008.316.128.588.366.816.236.228.57.398 1.005.51.434.114.958.163 1.57.148.604-.013 1.125-.086 1.556-.218.432-.132.762-.316.992-.554.23-.239.34-.516.335-.832a1.114 1.114 0 0 0-.372-.82c-.24-.224-.578-.392-1.017-.506-.437-.111-.96-.163-1.565-.147-.615.012-1.135.085-1.562.217-.426.132-.753.316-.981.55a1.123 1.123 0 0 0-.327.836Zm6.047-3.393-.108-.013a.478.478 0 0 0-.162-.337c-.094-.078-.248-.132-.463-.158l-6.386-.774c-.278-.034-.482-.029-.618.015a.671.671 0 0 0-.348.285L0 33.164l.126-1.513 7.467.904c.214.026.376.013.486-.041a.49.49 0 0 0 .241-.288l.107.013-.238 1.917.003.003Zm.245-2.665-.104-.029a.467.467 0 0 0-.107-.362c-.082-.088-.228-.164-.435-.22l-3.96-1.107c-.27-.075-.474-.1-.618-.08a.672.672 0 0 0-.395.228l-.105-.028.204-1.456 1.143.259 4.03 1.124c.206.057.368.07.486.036a.462.462 0 0 0 .283-.254l.104.029-.528 1.857.002.003Zm.997-3.5-.104-.028a.467.467 0 0 0-.108-.363c-.08-.088-.227-.163-.434-.22l-2.949-.823c-.567-.158-1.02-.174-1.36-.042-.34.132-.568.407-.688.824-.063.22-.063.458 0 .715.063.256.183.497.358.728l-.055.02a2.225 2.225 0 0 1-.696-1.005 1.888 1.888 0 0 1-.031-1.152c.16-.562.458-.95.892-1.166.434-.215.966-.236 1.596-.06l3.234.904c.207.057.369.07.487.037a.462.462 0 0 0 .282-.254l.105.028-.529 1.857Zm-1.09-3.403c.72.057 1.316-.005 1.79-.181a1.826 1.826 0 0 0 1.033-.912c.146-.29.178-.56.094-.808-.084-.249-.27-.443-.555-.585a1.066 1.066 0 0 0-.73-.104c-.238.054-.47.163-.698.324-.228.16-.46.336-.701.528a5.94 5.94 0 0 1-.73.505 2.203 2.203 0 0 1-.777.285c-.272.044-.558-.01-.856-.158a1.54 1.54 0 0 1-.897-1.39 1.93 1.93 0 0 1 .233-.925c.091-.184.188-.335.285-.449.096-.113.185-.212.267-.292a.912.912 0 0 0 .183-.246c.08-.163.089-.29.02-.386l.043-.086 1.792.635-.053.106c-.612-.039-1.112.01-1.496.148-.385.137-.66.367-.824.691-.131.262-.165.508-.105.736.063.23.22.406.468.528a.777.777 0 0 0 .626.044 2.44 2.44 0 0 0 .646-.355c.22-.163.45-.341.685-.536.236-.191.482-.36.74-.5a2.17 2.17 0 0 1 .828-.259c.293-.03.607.034.941.2.492.243.812.59.953 1.038.144.451.089.925-.165 1.428-.118.233-.238.43-.359.59-.12.16-.227.3-.324.417-.094.117-.165.22-.212.314-.089.176-.11.32-.057.435l-.042.085-2.104-.761.053-.107.005.003Zm-1.492-7.838c-.222-.166-.403-.264-.539-.295a.691.691 0 0 0-.447.072l-.087-.064.877-1.244 6.033 4.53c.16.12.296.182.413.184a.517.517 0 0 0 .346-.134l.086.064-1.177 1.539-.087-.065a.507.507 0 0 0 .04-.365c-.037-.111-.134-.225-.29-.344l-5.165-3.878h-.003Zm7.723 1.756-.086-.064a.471.471 0 0 0 .034-.376c-.044-.111-.152-.233-.324-.363l-2.441-1.83c-.471-.353-.887-.532-1.254-.532-.363 0-.68.171-.944.518a1.353 1.353 0 0 0-.264.671c-.032.259-.01.526.068.803l-.068.01a2.304 2.304 0 0 1-.272-1.194c.02-.406.154-.769.4-1.09.356-.466.774-.718 1.256-.76.481-.04.98.136 1.504.527l2.677 2.01c.172.13.319.2.44.21a.49.49 0 0 0 .358-.133l.086.065-1.172 1.528h.002Zm-3.371-8.446a.69.69 0 0 1 .502-.202.648.648 0 0 1 .66.67.668.668 0 0 1-.22.49.691.691 0 0 1-.503.202.661.661 0 0 1-.479-.2.63.63 0 0 1-.178-.47.667.667 0 0 1 .22-.49h-.002Zm.98 2.258.984-1.173 3.705 3.784c.15.153.285.244.406.27a.5.5 0 0 0 .369-.075l.076.077-1.4 1.345-.076-.076c.086-.127.118-.248.089-.367-.026-.117-.115-.254-.264-.407l-2.855-2.917c-.199-.204-.366-.331-.502-.383a.691.691 0 0 0-.458 0l-.076-.075.003-.003Zm6.154 2.319-.066-.083c.1-.117.144-.236.131-.355-.013-.12-.086-.264-.217-.433l-2.528-3.23c-.17-.217-.319-.36-.444-.422a.696.696 0 0 0-.45-.044l-.066-.085 1.039-1.052.955 1.124 2.226 2.844c.176.226.343.36.498.404.157.044.358.013.604-.095l.065.082-1.747 1.342v.003Zm-1.547-4.432-.107-.023c-.19-.464-.277-.878-.259-1.249.018-.368.136-.634.35-.8a.588.588 0 0 1 .367-.14c.118.003.222.062.311.174.079.1.11.202.097.308a.41.41 0 0 1-.17.274.754.754 0 0 1-.246.13.671.671 0 0 0-.228.114.555.555 0 0 0-.222.412c-.016.173.021.44.11.797l-.003.003Zm6.699 1.096c-.474.264-.953.38-1.442.35a2.68 2.68 0 0 1-1.386-.506c-.435-.305-.811-.738-1.128-1.292-.293-.516-.463-1.029-.505-1.539-.044-.51.031-.971.228-1.385a2.16 2.16 0 0 1 .918-.97c.55-.305 1.086-.385 1.609-.237.523.147.944.5 1.261 1.056l.136.239-3.386 1.888-.099-.176 1.405-.837c.374-.228.612-.435.714-.63.102-.191.087-.4-.042-.629-.164-.287-.387-.471-.667-.544-.28-.075-.565-.03-.858.132a1.259 1.259 0 0 0-.565.622 1.72 1.72 0 0 0-.102.907c.044.336.175.694.39 1.072.277.49.615.878 1.01 1.17.395.293.808.464 1.24.514.432.049.84-.034 1.23-.252.478-.267.774-.64.886-1.119h.071c.063.529.018.972-.13 1.326-.15.355-.409.638-.778.842l-.01-.002Zm6.922-5.732-3.137.86-.165-.594 3.137-.86.165.594Z"/>
</svg>
