<svg width="75" height="75" viewBox="0 0 75 75" fill="none" xmlns="http://www.w3.org/2000/svg">
<path d="M49.3387 25.0966L49.3335 25.7641L49.4449 26.4702L49.4668 27.1817V27.8932L49.4856 28.6046L49.396 29.2829L49.4179 29.9643L49.3554 30.6425L49.2867 31.3186L49.1784 31.9904L49.0503 32.6579L48.9816 33.3661L48.2549 33.291L47.5365 33.3307L46.8191 33.3221L46.1007 33.3007L45.3812 33.3661L44.6618 33.2942L43.9433 33.3661L43.2208 33.305L42.4878 33.3747L42.6106 32.6665L42.7168 31.9936L42.7928 31.3175L42.8532 30.6415L42.8907 29.9643L42.9563 29.2861L42.8772 28.6046L42.899 27.8932L42.8553 27.1817L42.8855 26.468L42.8147 25.7598L42.7897 25.0783L42.1608 25H41.5205L40.8802 25.058H40.243L40.2649 25.7555L40.2898 26.468L40.3794 27.1763L40.3305 27.891L40.3606 28.6025L40.3544 29.2829L40.3086 29.9611L40.2326 30.6372L40.2243 31.3207L40.1555 31.999L39.9848 32.66L39.8838 33.3189L39.2112 33.3103L38.5323 33.3608L37.8545 33.3361L37.1757 33.291L36.4979 33.3833L35.8169 33.3747L35.1329 33.35L34.9767 32.674L34.9528 31.9904L34.8028 31.3229L34.7216 30.6479L34.7456 29.9643L34.6779 29.2861V28.6046L34.6571 27.8932L34.7299 27.1849L34.7487 26.4734L34.7351 25.7587L34.781 25.058L34.1438 25.0193L33.5034 25.0408L32.8641 25.0333L32.2259 25.058L32.2176 25.7587L32.1499 26.467L32.1718 27.1795L32.1395 27.891L32.0822 28.6025L32.0895 29.2829L32.1801 29.9589L32.2155 30.6372L32.2207 31.3175L32.2936 31.9936L32.4581 32.6547L32.531 33.3382L31.8094 33.3715L31.091 33.3608L30.3736 33.3715L29.6552 33.3436L28.9358 33.3275L28.2163 33.3221L27.4979 33.291L26.7753 33.3661L26.0621 33.305L25.9799 32.6547L25.8195 31.9936L25.7237 31.3207L25.7071 30.6393L25.629 29.9632L25.6342 29.2829L25.5613 28.6046L25.6342 27.8932L25.5821 27.1817L25.6717 26.4734L25.6311 25.7587L25.7019 25.0644L25.0667 25.0107H24.4275L23.7871 25.0537L23.152 25.0719L23.076 25.7587L23.0656 26.4702L23 27.1817L23.0593 27.8964L23.0052 28.6079L23.0219 29.3505L23.0677 30.092L23.1437 30.8325L23.1791 31.5729L23.2363 32.3155L23.4134 33.041L23.531 33.775L23.6893 34.5004L23.8767 35.2173L24.0672 35.9352L24.2525 36.6542L24.4431 37.3721L24.6638 38.0386L24.8439 38.7221L25.1167 39.3735L25.402 40.0153L25.6363 40.6795L25.9278 41.3191L26.2443 41.9469L26.5765 42.5672L26.8711 43.2035L27.1731 43.8367L27.5166 44.4516L27.8488 45.0955L28.2684 45.6878L28.6193 46.321L29.0524 46.9026L29.4126 47.5336L29.8072 48.1399L30.2758 48.6894L30.6329 49.329L31.0848 49.8934L31.5481 50.4461L32.0583 50.9526L32.4872 51.5139L32.9662 51.9839L33.4347 51.5031L33.9178 50.988L34.3374 50.4493L34.7841 49.9321L35.1631 49.3601L35.5764 48.8182L36.0377 48.3095L36.3636 47.7032L36.7894 47.1645L37.1267 46.5635L37.5078 45.9905L37.8545 46.5861L38.2606 47.1387L38.6 47.7364L39.0259 48.273L39.4069 48.8396L39.7911 49.4095L40.2107 49.9492L40.6324 50.488L41.1259 50.9601L41.5892 51.4913L42.0494 52L42.5013 51.4838L42.9886 50.9752L43.4467 50.4193L43.9069 49.8655L44.3265 49.2796L44.7742 48.7119L45.1574 48.1002L45.5801 47.5143L45.9882 46.9198L46.4109 46.3328L46.8003 45.7211L47.0971 45.0547L47.4542 44.4237L47.8374 43.8335L48.1893 43.225L48.4725 42.5811L48.7859 41.9523L49.0982 41.3213L49.3794 40.6774L49.6115 40.0099L49.8864 39.3617L50.1425 38.706L50.3799 38.0439L50.5673 37.3657L50.8016 36.6596L50.9869 35.9406L51.216 35.2323L51.292 34.4865L51.5263 33.7782L51.6491 33.0442L51.7116 32.3016L51.8584 31.5708L51.9292 30.8314L51.9396 30.0866L52 29.344L51.9761 28.5993L51.9698 27.8878L51.9865 27.1763L51.9459 26.4648L51.9157 25.7533L51.8584 25.0751L51.2295 25.0644L50.5892 25.0923L49.9489 25.0494L49.3221 25.0859L49.3387 25.0966ZM32.9818 48.1131L32.5653 47.4542L32.0697 46.9005L31.647 46.2888L31.2441 45.6664L30.8328 45.0472L30.5111 44.3711L30.0894 43.7573L29.7323 43.1037L29.397 42.4845L29.0919 41.8482L28.7973 41.2032L28.4246 40.5969L28.2038 39.9187L27.8935 39.2855L27.6374 38.6266L27.4052 37.9559L27.1064 37.312L26.9502 36.6145L26.6951 35.9191L27.4167 35.9771L28.1299 35.9052L28.841 35.947L29.5522 35.9577H30.9796L31.6928 35.9524L32.4071 35.991L33.1338 35.9019L33.3358 36.6553L33.5784 37.3593L33.7523 38.0675L34.0303 38.7436L34.2895 39.424L34.4853 40.1301L34.7685 40.8029L35.1152 41.4447L35.4202 42.1068L35.7118 42.7732L36.0304 43.4128L35.7409 44.0384L35.3276 44.6029L34.9788 45.2082L34.6029 45.7952L34.2 46.3639L33.7804 46.9209L33.4201 47.5218L32.9818 48.1078V48.1131ZM35.7722 35.9019L36.4822 35.9803L37.1767 35.8998H37.8712L38.5656 35.9138L39.2737 35.9052L39.0186 36.6081L38.8468 37.2949L38.599 37.9559L38.3491 38.6148L38.0648 39.2598L37.7681 39.8994L37.5224 40.5948L37.2746 39.9026L36.9643 39.2716L36.7082 38.6148L36.4791 37.9484L36.1824 37.3056L36.0304 36.6113L35.768 35.903H35.7711L35.7722 35.9019ZM45.3541 43.1295L44.9189 43.7347L44.6055 44.4162L44.213 45.0472L43.8017 45.6674L43.3988 46.2899L42.9084 46.8511L42.5159 47.4821L42.0609 48.0627L41.6444 47.5068L41.2519 46.9284L40.8708 46.3446L40.4158 45.8113L40.0993 45.1835L39.6964 44.6136L39.3424 44.0105L39.0154 43.4128L39.283 42.7517L39.6662 42.1293L39.9119 41.4361L40.2607 40.7944L40.4793 40.0936L40.7834 39.4326L41.0509 38.7543L41.2904 38.0643L41.5164 37.3732L41.7267 36.6585L41.9328 35.9824L42.6335 35.8966L43.3468 35.9245L44.0579 35.8944L44.769 35.9492L45.4822 35.9105H46.1965L46.9097 35.9889H47.6239L48.3423 35.9299L48.1414 36.622L47.8915 37.2874L47.6458 37.9506L47.4584 38.6374L47.1356 39.2705L46.8826 39.9326L46.5963 40.5808L46.2808 41.2107L45.9435 41.831L45.6707 42.4867L45.3541 43.1209V43.1295Z" fill="#29382B"/>
</svg>
